<svg xmlns="http://www.w3.org/2000/svg" viewBox="0 0 340 470"><defs>
    <clipPath id="wpwebLogoClip"><rect x="0" y="0" width="340" height="390"/></clipPath>
  </defs><path class="arc"    d="M140,35.75 L139.5,36.25 L139.5,122.5 L154,122.5 L163,123 L164.5,123.5 L171.25,124 L178.75,125.25 L196,129.25 L215.75,136.25 L231.75,144 L246.75,153.25 L256,160 L263.25,166 L276.25,178.5 L289.25,194 L294.25,201 L300.25,210.5 L309.25,228 L314.5,241.25 L317.25,249.5 L318.25,254.25 L319,255.75 L321.25,265.75 L323.25,278 L323.5,283.5 L324.25,288.25 L324.5,295.5 L324.25,311.75 L323.25,317.5 L323.5,320.25 L324,319.75 L324.25,318 L325,316.5 L325.25,314.25 L327,308.5 L327,307.25 L327.75,305.75 L329,298 L329.75,296 L330,292.5 L331,287.75 L331,285.5 L331.75,282.25 L333,267.5 L333,244.5 L331,224.25 L329.75,216 L329,214 L328.75,211 L326,199.25 L325.25,197.75 L325,195.75 L322.25,186.75 L318.75,176.75 L313.25,163.75 L308,153 L302.75,143.5 L296,132.75 L290,124.25 L281.75,113.75 L275,106 L265.75,96.5 L254.75,86.5 L245.75,79.25 L228.75,67.5 L221.75,63.25 L208.5,56.25 L200.5,52.5 L184.75,46.25 L172,42.25 L160.25,39.25 L146.25,36.5 Z"    fill="#231f20" fill-rule="evenodd"/></svg>
