<svg xmlns="http://www.w3.org/2000/svg" viewBox="0 0 340 470"><defs>
    <clipPath id="wpwebLogoClip"><rect x="0" y="0" width="340" height="390"/></clipPath>
  </defs><path class="circle" d="M139.75,156.25 L129,158.5 L123.25,160.5 L115.5,164.25 L110.25,167.5 L105.25,171.25 L97.75,178.5 L95.25,181.5 L90.25,188.75 L87.25,194.5 L84.5,201 L82.5,207.75 L80.75,220.5 L80.75,226 L81.5,233.5 L82.5,239 L84.5,245.75 L85,246.25 L87.25,252.25 L90.25,258 L92.5,261.5 L98.25,268.75 L103.5,274 L107.5,277.25 L112.5,280.75 L120.5,285 L130.75,288.75 L142.25,290.75 L154.5,290.75 L162.5,289.5 L169.25,287.75 L180.25,283 L185.75,279.75 L190.75,276 L194.5,272.75 L199.75,267.25 L202.75,263.5 L207,257 L210.75,249.5 L211,248 L212.75,244 L214.75,235.75 L215.75,228.5 L215.75,218.25 L213.75,206.25 L210.75,197.25 L208.75,193 L205,186.5 L202,182.25 L198,177.5 L191.75,171.5 L186.5,167.5 L181.25,164.25 L173.5,160.5 L162.75,157.25 L154,156 Z" fill="#63c29d" fill-rule="evenodd"/></svg>
