<svg xmlns="http://www.w3.org/2000/svg" viewBox="0 0 340 470"><defs>
    <clipPath id="wpwebLogoClip"><rect x="0" y="0" width="340" height="390"/></clipPath>
  </defs><g class="wordmark">
      <path d="M698.75,440.5 L698.75,444.75 L701.75,445 L702,440.5 Z M674.5,440.25 L674.25,444.75 L677,445 L677.25,440.5 Z M473.75,440.5 L473.75,444.75 L476.75,445 L477,440.5 Z M441.5,440.25 L441.25,444.75 L444,445 L444.25,440.5 Z M409.75,440.5 L409.75,444.75 L412.75,445 L413,440.5 Z M625,433.75 L625,435.5 L625.5,436 L633.75,436 L634.25,435.5 L634.25,433.75 L633.75,433.25 L625.5,433.25 Z M276.25,423.75 L274.5,423.75 L273.5,425 L273.25,429 L272.5,431 L271.25,440.75 L270.25,444.5 L270.5,445.75 L272.5,445.75 L273.25,444.75 L276,427.25 L276.75,425.25 L276.75,424.25 Z M245.75,423.75 L245,425.75 L242.75,439.5 L242.75,442.5 L243.25,444 L245,445.75 L247.75,446.25 L249.5,445.75 L252.75,443 L253.25,443 L253.5,445.75 L255.25,445.75 L256,444.75 L259.25,424.25 L258.75,423.75 L257.25,423.75 L256.5,424.25 L255,434.25 L254.25,437.5 L253.25,439.75 L250,443 L247,443.25 L245.5,441.5 L245.5,439 L246.75,433.25 L248,424 Z M327.25,423.5 L323.25,423.5 L321.75,424.25 L319.25,427.25 L319,430.75 L319.25,432 L320.25,433.5 L321.75,434.75 L326.25,437.25 L328,439.5 L328,441 L327.25,442.25 L325.5,443.5 L323.75,443.75 L321.5,443.25 L320,441.75 L319,438.5 L316.75,438.5 L316.5,441 L317.5,443.5 L319,445 L320.75,446 L323,446.5 L326.5,446 L328.25,445 L329.75,443.5 L330.5,441.75 L330.75,438.5 L329.5,435.75 L326.25,433.25 L324,432.25 L322,430.5 L321.5,429.5 L321.75,428 L323.25,426.5 L325.5,426 L327.5,426.75 L328.5,427.75 L329.5,430.25 L330.25,430.5 L331.5,430.25 L332,429.75 L331.75,427.75 L330.5,425.5 L329.5,424.5 Z M310.75,423.5 L308,423.5 L306,424.5 L303.5,427 L303,426.75 L303,424 L301.75,423.75 L300.75,424.5 L297.25,445.5 L297.75,446 L299.5,446 L300,445.5 L302,433.25 L303.25,430 L304.75,428 L307.75,426.25 L309.25,426.25 L311.25,428.25 L311.25,430 L310.5,432.5 L308.5,445.75 L310.5,446 L311.25,445.5 L313.75,431.25 L313.75,426.75 L312.5,424.5 Z M182.5,423.5 L181,423.5 L179.75,424.5 L172.75,440.25 L171.75,439.75 L170.25,424.25 L169.25,423.5 L167.5,423.75 L167.25,424.75 L168,427.75 L168.25,432.25 L169,434.75 L170.25,446 L169,448.75 L167,451 L164.75,451 L164.25,451.5 L164.5,454.25 L167.75,454.25 L170.5,451.5 L178.75,433.75 L181,428 L182.75,424.75 Z M289.5,423.25 L285.75,423.5 L283.75,424.5 L281.5,426.75 L279.25,431.5 L278.75,434.25 L279,441 L280.25,443.5 L281.75,445 L283.5,446 L286.75,446.25 L290,445 L292.75,442.25 L294.75,437.75 L295.25,433.5 L294.75,428 L292.75,425 L291.5,424 Z M289.25,426 L291.25,427.75 L292.25,429.5 L292.25,436 L290.25,440.75 L288,443 L286.75,443.5 L285,443.5 L283.75,443 L282.5,441.75 L281.75,440.25 L281.25,438 L281.5,434.25 L282.25,431.25 L284,428.25 L286.25,426.25 Z M227.5,423.5 L224,423.25 L220.75,424.5 L218.5,426.75 L216.25,431.25 L215.5,435 L215.75,440.25 L216.5,442.5 L217.5,444 L220.5,446 L225,446 L227.25,444.75 L229.5,442.5 L231.25,439 L232.25,433.5 L232,429.25 L230.5,426 Z M226,426 L228.25,427.75 L229.25,429.5 L229.25,435.75 L228,439.5 L227,441 L224.5,443.25 L222,443.5 L220.75,443 L219.25,441.5 L218.25,438.25 L218.25,435.75 L219,431.75 L220.75,428.5 L222.5,426.75 L224,426 Z M163.5,423.5 L162.5,423.5 L161.75,424 L161.5,425.75 L161,426.25 L160.5,426.25 L157.75,423.5 L153.25,423.5 L150.5,425.5 L148.25,429 L147,432.5 L146.75,438 L147.25,440.75 L148.5,443.25 L150,444.75 L151.75,445.5 L154,445.5 L155.5,445 L157.25,443.5 L158,444 L157,448.5 L154.75,451.25 L151,451.5 L149.25,450.25 L148.5,448.25 L146.5,448 L146,448.5 L146,450 L146.75,452 L149.25,454 L151.5,454.5 L155.5,454 L156.5,453.5 L158.75,451.25 L159.75,449.25 L164,425.75 L164,424 Z M156.75,426 L159.5,428.75 L160,430.25 L160,434.25 L159.25,437.25 L157.5,440.5 L155.5,442.25 L153.25,442.75 L152,442.25 L150,439.75 L149.5,436.5 L150,432.25 L151.25,429.25 L152.75,427.25 L154.75,426 Z M139.75,423.25 L136,423 L134,423.5 L132.5,424.5 L130.25,427 L128.25,431.5 L127.75,435.25 L127.75,438.75 L128.25,441.25 L130.25,444.25 L133.75,446 L137,445.75 L140,444 L142,441.75 L144,437 L144.5,432.75 L144,428.25 L141.75,424.5 Z M137.5,425.5 L139.25,426.25 L140.5,427.5 L141.25,429 L141.25,436 L140.25,439 L139.25,440.5 L136.5,443 L134,443.25 L132.75,442.5 L131,440.5 L130.5,438 L130.75,433.5 L131.25,431.25 L133,428 L135.25,426 Z M111.75,423 L108,423.25 L106,424.25 L103.5,427 L102.25,429.25 L101.25,432.25 L101.25,440.75 L102.25,442.75 L103.75,444.5 L107,446 L110,445.75 L113.5,443.75 L115.75,440.75 L117,437.5 L117.75,432.25 L117,427.75 L116,425.75 L114.25,424 Z M110.5,425.5 L112.75,426.5 L114.25,428.5 L114.75,430.5 L114.5,435.5 L114,437.5 L112.5,440.5 L109.75,443 L107.25,443.25 L105,441.75 L104,439.75 L104,433.25 L104.75,430.5 L106.25,428 L108.5,426 Z M96,423.5 L94.75,423 L91.75,423.25 L90,424.25 L88,426.25 L87,425.75 L87.5,423.75 L86.5,423.25 L85.25,423.5 L84.75,424.5 L84,430.75 L83.5,431.75 L83.25,435 L81.5,443.5 L81.75,445.25 L83.5,445.5 L84.25,444.5 L85.75,437 L86,433.75 L87,430.5 L88.75,427.75 L91.25,426 L93.75,426 L95.25,427.5 L95.25,430.75 L92.75,445 L93.5,445.5 L94.5,445.5 L95.5,444.75 L98,430.25 L98,426.5 L97.25,424.75 Z M57,423 L53.25,423 L50.25,424.5 L48.5,426.5 L46.5,431.25 L46,433.75 L46.25,441 L47.75,443.75 L48.75,444.75 L51,445.75 L53.75,445.75 L56.25,444.5 L58,442.75 L60,439 L59.75,437.75 L57.75,437.5 L56,440.75 L54.5,442.25 L52.5,443.25 L50.25,442.25 L49,440.5 L48.75,435.25 L49.25,432 L50,429.5 L51.75,427 L53.25,426 L55,425.5 L56.5,426 L58.25,428 L58.75,430 L60.75,430 L61.25,429.5 L60.5,426 L58.25,423.5 Z M37.75,423 L35.5,422.75 L32.5,423.5 L29.5,426.25 L27.25,430.75 L26.5,435 L26.5,438 L27.25,441.5 L29.5,444.5 L32,445.75 L35,445.75 L37.25,444.75 L40,442 L41.5,439.25 L41.5,438.5 L40.5,438 L39,438.25 L38,440 L35.75,442.25 L34,443 L33,443 L31.5,442.25 L30,440.5 L29.25,438 L29.5,435.5 L30.25,435 L41.5,435.25 L42.75,434.5 L42.75,429.5 L42,427 L41,425.25 L39.5,423.75 Z M30,431.25 L32,427.5 L35,425.5 L36.75,425.5 L37.75,426 L39.25,427.5 L40.25,430.25 L40.25,431.75 L39.25,432.5 L31,432.5 L30,431.75 Z M906.25,421.25 L905.25,422.75 L903.25,424.25 L901,424.25 L900.5,424.75 L900.5,426.5 L901,427 L904.75,427 L905.25,427.5 L905.25,441.75 L904.75,442.25 L901,442.25 L900.5,442.75 L900.5,444.5 L901,445 L912,445 L912,442.25 L908.5,442.25 L907.75,441.5 L908,422 L907.5,421.25 Z M848.75,421.25 L838,434.5 L838,437.75 L848.5,438.25 L848.75,444.75 L850.75,445 L851.25,444.75 L851.25,438.5 L851.75,438 L854.25,438 L854.75,437.5 L854.75,435.75 L854.25,435.25 L851.75,435.25 L851.25,434.75 L851.25,421.5 Z M848.75,425.5 L848.75,434.75 L848,435.25 L840.75,435.25 L840.25,434.5 L847,426.25 L848,425.5 Z M753.75,421.25 L739.5,421.25 L739,421.75 L739,423.5 L739.5,424 L751.5,424 L752,424.5 L750,428.5 L749.25,429.25 L748,432.5 L747.25,433.25 L744.75,438.5 L743.5,440.25 L742,443.75 L741.25,444.5 L741.5,445 L743.75,445 L746.75,440 L753,427 L754,425.75 L754.25,421.75 Z M683.75,421.25 L683.25,421.75 L683.25,423.5 L683.75,424 L685.75,424 L686.25,424.5 L686.25,441.75 L685.75,442.25 L683.75,442.25 L683.25,442.75 L683.25,444.5 L683.75,445 L691.75,445 L692,442.5 L689.5,442.25 L689,441.75 L689,424.5 L689.5,424 L691.75,424 L692,421.5 Z M651.5,421.25 L651.25,444.75 L654,444.75 L654,435.5 L654.5,435 L658.5,435 L666.25,445 L669,445 L669,444.25 L661.25,434.75 L665,431 L665.75,428.25 L665,424.25 L663,422.25 L661.5,422 L660.25,421.25 Z M654,424.5 L654.5,424 L660.75,424.25 L663,426.5 L663.25,428 L662.75,429.75 L661.5,431.25 L659.75,432.25 L654.5,432.25 L654,431.75 Z M562.25,421.25 L561.25,422.75 L559.25,424.25 L557,424.25 L556.5,424.75 L556.5,426.5 L557,427 L560.75,427 L561.25,427.5 L561.25,441.75 L560.75,442.25 L557,442.25 L556.5,442.75 L556.5,444.5 L557,445 L568,445 L568,442.25 L564.5,442.25 L563.75,441.5 L564,422 L563.5,421.25 Z M457.25,421.25 L456.25,422.5 L456,424.25 L455.25,425.5 L453,433 L452.25,434.25 L452,436 L451.25,437.25 L451,439 L450.25,440.25 L449,444.75 L451,445 L451.75,444.5 L453,439.75 L453.75,439 L463.5,439 L464.25,439.75 L464.25,440.75 L465,441.75 L465.5,444.25 L466.25,445 L468,445 L468.25,443.75 L467.25,441.75 L467,440 L466.25,438.75 L466,437 L465.25,435.75 L463,428.25 L462.25,427 L461,422.25 L460,421.25 Z M458.25,424.5 L459.25,424.75 L459.25,425.5 L460,426.75 L460.25,428.75 L461,429.75 L461.25,431.75 L462,432.75 L462.25,434.5 L462.75,435.25 L462.25,436.25 L455.25,436.25 L454.5,435.75 Z M420.5,421.25 L420.25,444.75 L434.5,445 L435,444.5 L435,442.75 L434.5,442.25 L423.5,442.25 L423,441.75 L423,433.5 L423.5,433 L434.5,433 L435,432.5 L435,430.75 L434.5,430.25 L423.5,430.25 L423,429.75 L423,424.5 L423.5,424 L434.5,424 L435,423.5 L435,421.75 L434.5,421.25 Z M387.5,421.25 L387.25,444.75 L390,444.75 L390,435.5 L390.5,435 L394.5,435 L402.25,445 L405,445 L405,444.25 L397.25,434.75 L401,431 L401.75,428.25 L401,424.25 L399,422.25 L397.5,422 L396.25,421.25 Z M390,424.5 L390.5,424 L396.75,424.25 L399,426.5 L399.25,428 L398.75,429.75 L397.5,431.25 L395.75,432.25 L390.5,432.25 L390,431.75 Z M919.75,421.5 L919.25,422.25 L919.5,424.75 L923.25,423 L927.25,423 L928.75,424 L930,425.5 L930,428.75 L928.25,432.25 L918.75,441.75 L918.75,444.75 L933.5,444.75 L933.5,442.5 L933,442.25 L922.5,442.25 L922,441.75 L928,436 L932,430.75 L932.75,427.25 L932,423.5 L929.75,421.25 L927.25,420.25 L923.5,420.25 L922.5,421 Z M884.25,420.25 L881.75,421.5 L880.25,423.25 L879.25,425.25 L878.5,429.5 L878.5,435.75 L879.25,440 L880.5,442.5 L882,444 L883.25,444.25 L884.25,445 L887.75,445 L889.25,444 L890,444 L892,441.75 L893,439.25 L893.5,434.5 L893,426 L892,423.5 L890,421.25 L889.25,421.25 L887.75,420.25 Z M884.25,423 L887.5,423 L888.75,423.75 L890.25,425.75 L891,428.75 L890.75,437.75 L889.5,440.75 L887.5,442.25 L883.75,442 L882.25,440.5 L881.25,438.25 L881,428.5 L882.25,424.75 Z M864.75,420.25 L863.25,421.25 L862.5,421.25 L860.25,424 L859.25,427 L859.25,438.25 L860.25,441.25 L862.5,444 L863.75,444.25 L864.75,445 L868,445 L870.75,443.75 L873,440.75 L874,436.5 L874,429 L873,424.5 L870.75,421.5 L868,420.25 Z M865,423 L868.5,423.25 L870.25,424.75 L871.25,427.5 L871.25,437.75 L870.25,440.5 L868.25,442.25 L864.75,442.25 L862.25,439.75 L861.5,436.25 L861.5,429 L862,427.75 L862,426.25 L863,424.5 Z M820.5,421.25 L820,421.75 L820,424.25 L821,424.25 L822.5,423.25 L827.75,423 L829,423.75 L830.25,425.25 L830.5,428.25 L830,430.25 L828.25,432.75 L823,438.25 L819.25,441.5 L819.25,444.75 L833.75,445 L833.75,442.25 L823,442.25 L822.5,441.75 L828.75,435.75 L832,431.75 L833,429.25 L833,424.5 L831.5,422.25 L829.75,421 L828.75,421 L828,420.25 L824,420.25 L822.75,421 Z M800.5,421.25 L800,421.75 L800,424.25 L801,424.25 L802.5,423.25 L807.75,423 L809,423.75 L810.25,425.25 L810.5,428.25 L810,430.25 L808.25,432.75 L803,438.25 L799.25,441.5 L799.25,444.75 L813.75,445 L813.75,442.25 L803,442.25 L802.5,441.75 L808.75,435.75 L812,431.75 L813,429.25 L813,424.5 L811.5,422.25 L809.75,421 L808.75,421 L808,420.25 L804,420.25 L802.75,421 Z M788,420.25 L784.5,420.25 L783.5,421 L782.25,421.25 L779.75,423.75 L778.75,426.25 L778.5,429.75 L779,431.75 L780,433.5 L781.5,435 L784,436 L787.75,436 L788.5,435.25 L789.25,435.25 L790.5,434.5 L791.25,435.25 L791,437.25 L790.25,438.75 L788,441.25 L786,442.25 L782.25,442.25 L781,441.75 L780.75,444 L781.5,445 L785.5,445 L786.5,444.25 L788.25,444 L789.75,443 L792,440.5 L793.75,435.75 L794,427.75 L793,424.5 L790.5,421.5 L788.75,421 Z M782.25,424.5 L784.25,423 L787.75,423 L789,423.75 L790.25,425 L791.25,427 L791.25,431.75 L789,433.25 L784.25,433.25 L782.75,432.25 L781.5,430.75 L781,428.75 L781.25,426.5 Z M760.5,421.25 L760,421.75 L760,424.25 L761,424.25 L762.5,423.25 L767.75,423 L769,423.75 L770.25,425.25 L770.5,428.25 L770,430.25 L768.25,432.75 L763,438.25 L759.25,441.5 L759.25,444.75 L773.75,445 L773.75,442.25 L763,442.25 L762.5,441.75 L768.75,435.75 L772,431.75 L773,429.25 L773,424.5 L771.5,422.25 L769.75,421 L768.75,421 L768,420.25 L764,420.25 L762.75,421 Z M725.25,420.25 L722.75,421.5 L721.25,423.25 L720.25,425.25 L719.5,429.5 L719.5,435.75 L720.25,440 L721.5,442.5 L723,444 L724.25,444.25 L725.25,445 L728.75,445 L730.25,444 L731,444 L733,441.75 L734,439.25 L734.5,434.5 L734,426 L733,423.5 L731,421.25 L730.25,421.25 L728.75,420.25 Z M725.25,423 L728.5,423 L729.75,423.75 L731.25,425.75 L732,428.75 L731.75,437.75 L730.5,440.75 L728.5,442.25 L724.75,442 L723.25,440.5 L722.25,438.25 L722,428.5 L723.25,424.75 Z M595.75,421.5 L595.25,422.25 L595.5,424.75 L599.25,423 L603.25,423 L604.75,424 L606,425.5 L606,428.75 L604.25,432.25 L594.75,441.75 L594.75,444.75 L609.5,444.75 L609.5,442.5 L609,442.25 L598.5,442.25 L598,441.75 L604,436 L608,430.75 L608.75,427.25 L608,423.5 L605.75,421.25 L603.25,420.25 L599.5,420.25 L598.5,421 Z M575.75,421.5 L575.25,422.25 L575.5,424.75 L579.25,423 L583.25,423 L584.75,424 L586,425.5 L586,428.75 L584.25,432.25 L574.75,441.75 L574.75,444.75 L589.5,444.75 L589.5,442.5 L589,442.25 L578.5,442.25 L578,441.75 L584,436 L588,430.75 L588.75,427.25 L588,423.5 L585.75,421.25 L583.25,420.25 L579.5,420.25 L578.5,421 Z M539.5,420.25 L538.75,421 L536.25,421.25 L535.5,422 L535.5,424.75 L539.5,423 L543.5,423 L546,424.75 L546.25,427.5 L545.75,428.25 L543.25,430.25 L540.5,430.25 L540,430.75 L540,432.5 L540.5,433 L543.5,433 L544.75,433.5 L546.25,435 L546.75,438 L546.25,439.75 L545.25,441 L543.25,442.25 L539.25,442.25 L535,440.75 L535,443.25 L535.5,444 L537.75,444.25 L539.25,445 L543,445 L545.75,444 L548,442 L549,440.25 L549,435 L547.5,433 L546.5,432.25 L545.5,432.25 L544.75,431.75 L548,428.75 L548.75,427.25 L548.75,424.25 L547.75,422.5 L545.75,421 L544.75,421 L544,420.25 Z M520.25,420.25 L517.75,421.25 L516.5,422.25 L515,424.5 L515.25,429 L517,430.75 L517.75,431 L518,431.75 L515.25,434.25 L514.25,436 L514.25,439.75 L515.25,442 L517.5,444 L520.25,445 L524,445 L524.75,444.25 L525.75,444.25 L527.25,443.25 L528.75,441.75 L529.75,439.25 L529.75,437 L529,434.75 L525.75,432 L525.75,431.5 L528,429.75 L528.25,428.75 L529,428 L529,424.25 L528,422.75 L525.75,421 L525,421 L524,420.25 Z M520,432.25 L525,434.25 L527,436.25 L527,439.75 L524.25,442.25 L520,442.25 L518.25,441 L517,439.25 L517,435.5 L517.75,434.25 Z M520,423 L523.75,423 L526.25,425 L526.25,428.75 L524,431.25 L523,431.25 L520,430 L518.5,429 L517.5,427.5 L517.5,425.25 Z M500.25,420.25 L497.75,421.25 L496.5,422.25 L495,424.5 L495.25,429 L497,430.75 L497.75,431 L498,431.75 L495.25,434.25 L494.25,436 L494.25,439.75 L495.25,442 L497.5,444 L500.25,445 L504,445 L504.75,444.25 L505.75,444.25 L507.25,443.25 L508.75,441.75 L509.75,439.25 L509.75,437 L509,434.75 L505.75,432 L505.75,431.5 L508,429.75 L508.25,428.75 L509,428 L509,424.25 L508,422.75 L505.75,421 L505,421 L504,420.25 Z M500,432.25 L505,434.25 L507,436.25 L507,439.75 L504.25,442.25 L500,442.25 L498.25,441 L497,439.25 L497,435.5 L497.75,434.25 Z M500,423 L503.75,423 L506.25,425 L506.25,428.75 L504,431.25 L503,431.25 L500,430 L498.5,429 L497.5,427.5 L497.5,425.25 Z M268.75,416.25 L267.75,416.5 L265.75,418.25 L265,422.75 L264,423.75 L262.5,424 L262,425 L262,426 L262.5,426.5 L263.5,426.5 L264.25,427.5 L261.75,441.5 L262,444.5 L263.75,446 L266.75,446 L267.75,443.75 L267.5,443.25 L265.25,443 L264.5,441.75 L267,427.25 L267.75,426.5 L270,426.25 L270.5,425 L270,423.75 L268.5,423.75 L267.75,423 L268.25,418.75 L269,417 Z M277.5,415.25 L275.75,415.25 L275.25,415.75 L275.25,417.25 L274.75,418.25 L275,419.25 L276.5,419.5 L277.5,419 L278,417 L278,415.75 Z M241.25,415.25 L239.5,415.25 L238.75,416.25 L237,428.25 L236.25,430.5 L236.25,432.5 L235.25,436.5 L235.25,438.5 L234.25,442.25 L234.25,445.75 L236.25,445.75 L237,444.5 L237,442.75 L237.5,441.5 L240,424.75 L241.75,416.25 Z M126.75,415 L124.75,415 L124.25,415.75 L121.5,433.75 L120.25,439.25 L120,442.75 L119.5,444 L119.5,445 L120.25,445.5 L121.75,445.25 L122.5,444 L122.5,442.25 L123,441.25 L123.25,438 L124,435.25 L124,433.25 L124.75,431.25 L125,427.75 L125.75,425.25 L126,421.5 L126.75,419.75 L127.25,416.25 Z M68,414.75 L67.25,415.5 L67.25,417 L66.5,419.5 L66.25,423 L65.5,425 L65.25,428.75 L64.5,431.25 L64.25,434.75 L63.5,437 L62.5,445 L64.75,445.25 L65.25,444.5 L67,433.25 L68.75,428.75 L70.25,427 L71.75,426 L74.5,425.75 L76.25,427.25 L76.25,430.25 L75.25,434.25 L74.25,442 L73.5,444.5 L74,445.25 L75.75,445.25 L76.5,444.75 L77,440.25 L77.75,438.25 L78,434.5 L79,430.25 L79,426.25 L77.5,423.75 L74.75,422.75 L71.75,423.5 L69.5,425.5 L68.5,425.25 L70,415.25 L69.25,414.75 Z M30.5,415 L12,415 L11.25,417.25 L11.75,418 L18.5,418 L19.25,418.75 L17.25,429.5 L17.25,431.5 L16.5,433.5 L16.25,437 L15.5,439.5 L15.25,443.25 L14.75,444.25 L15.25,445.25 L17.5,445.25 L18,444.5 L22.25,418.75 L23.25,418 L30.25,418 L30.75,416.5 Z M207.25,414.75 L204.5,414.5 L201.75,415 L199.75,416 L197.5,418.25 L196.5,420.75 L196.5,424.75 L198.25,428 L201,430.25 L206.5,433.25 L209,436.25 L209,438.75 L208,440.75 L206.25,442.25 L204,443 L201.75,443 L199,442 L197,440 L196.25,438 L196.25,436 L195.75,435.5 L194.25,435.75 L193.25,436.5 L193.5,438.75 L194.75,442.5 L197,444.75 L200.25,446 L205,446 L208.25,444.75 L210.75,442.25 L212,439.25 L212.25,436.75 L211.75,434.25 L211,432.75 L208.75,430.5 L201.75,426.5 L200,424.75 L199.25,423.25 L199.25,421.75 L200,420 L202.75,418 L207,418 L210,420.25 L211,423.5 L211.5,424 L213.75,423.25 L214,422.5 L213.5,420.5 L211.75,417.25 L209.75,415.75 Z M789.75,388.5 L789.75,392.75 L792.75,393 L793,388.5 Z M762.75,388.5 L762.75,392.75 L765.75,393 L766,388.5 Z M695.75,388.25 L693,388.25 L692.25,389 L692,392 L691.25,393.5 L691,396 L690.25,397.75 L690.5,399 L691.75,399 L692.25,398.25 L694.25,392.5 L695,391.5 L695.25,389.75 L696,389 Z M620.5,388.25 L620.25,392.75 L623,393 L623.25,388.5 Z M527.5,388.25 L527.25,392.75 L530,393 L530.25,388.5 Z M448.5,388.25 L448.25,392.75 L451,393 L451.25,388.5 Z M771.25,375.25 L771.25,377 L772,378 L772.25,379.75 L773,380.75 L775.25,387.5 L776,388.5 L777.25,392.75 L779.75,393 L781,390.75 L781.25,389.25 L783,385.75 L783.25,384 L784,383 L785.25,378.75 L786.75,375.75 L786.25,375.25 L784.5,375.25 L784,375.75 L779.5,388.25 L778.5,389 L778,388.5 L778,387.25 L776.25,383.25 L776,381.5 L775.25,380.5 L775,378.75 L774.25,377.75 L774,376 L773,375.25 Z M753.25,375.25 L752.75,375.5 L752.75,392.75 L754.75,393 L755,375.5 Z M514.5,374.25 L513.75,375 L512.25,375.25 L509.25,378.5 L508.25,383 L508.5,386.25 L509.25,388.75 L511.75,391.75 L513.75,392.25 L514.5,393 L518,393 L521.25,391.75 L521.75,390.75 L521.75,389 L521.25,388.75 L518,390.25 L514.75,390.25 L512.75,389 L511.25,386.75 L511,385.5 L511.25,380.5 L512.25,378.75 L514.25,377.25 L518,377 L521.5,378.5 L521.75,376.5 L521,375.25 L518,374.25 Z M495.25,374.25 L492.75,375.5 L490.25,378.5 L489.5,381.25 L489.5,386 L490.25,388.75 L492.75,391.75 L495.25,393 L498.75,393 L499.75,392.25 L501,392 L503.75,388.75 L504.75,384.75 L504.75,382.5 L503.75,378.5 L501,375.25 L499.75,375 L498.75,374.25 Z M495.25,377 L498.5,377 L501,378.75 L502,381.25 L502.25,384 L501.25,388 L498.5,390.25 L494.75,390 L493,388.25 L492.25,386.75 L492.25,380.5 L493,379 Z M437,374.25 L434.25,374.25 L433.5,375 L431.75,375.5 L431.25,376.25 L430.5,376.25 L429.75,375.25 L428,375.25 L427.5,375.75 L427.5,399.5 L428,400 L430,399.75 L430,392.5 L430.5,392 L433.25,393 L436,393 L437.75,392.25 L440,390.5 L441.75,387 L442,380 L441.25,378.75 L441,377.25 L439,375.25 Z M433.25,377 L436.5,377 L438.5,378.75 L439.25,380 L439.25,386.75 L438.25,388.5 L436,390.25 L432,390.25 L430,388.75 L430,379.5 L431,378.25 L432,378 Z M409.5,375 L409,375.5 L409.25,377.75 L412,377 L416.25,377 L418.25,378.25 L419,379.5 L419,380.75 L418.25,381.25 L415.5,381.25 L414.75,382 L411,382.25 L409.25,383.25 L408.25,384.25 L407.25,386.75 L407.25,388.5 L408.25,390.75 L409.75,392.25 L411.25,393 L414.5,393 L415.5,392.25 L417.25,391.75 L418,391 L419,391.5 L419.25,393 L421.25,392.75 L421,377.5 L419,375.25 L417.5,375 L416.75,374.25 L411.75,374.25 L410.75,375 Z M419,384.5 L419,388 L418.25,389 L416.5,390 L412,390.25 L410,388.5 L410,386.5 L411.5,385 L413,384.25 L418.5,384 Z M752.75,369.25 L752.25,369.75 L752.25,371.5 L752.75,372 L755,372 L755.25,369.5 Z M586.5,369.25 L586,370.5 L584.25,372 L581.5,372.25 L581,372.75 L581,374.5 L581.5,375 L585,375 L585.75,375.5 L585.75,389.75 L585,390.25 L581.5,390.25 L581,390.75 L581,392.5 L581.5,393 L592.5,393 L593,392.5 L593,390.75 L592.5,390.25 L588.75,390.25 L588.25,389.75 L588.25,369.5 Z M726.75,368.25 L725.25,369.25 L724.5,369.25 L722.25,372 L721.25,375 L721.25,386.25 L722.25,389.25 L724.5,392 L725.75,392.25 L726.75,393 L730,393 L732.75,391.75 L735,388.75 L736,384.5 L736,377 L735,372.5 L732.75,369.5 L730,368.25 Z M727,371 L730.5,371.25 L732.25,372.75 L733.25,375.5 L733.25,385.75 L732.25,388.5 L730.25,390.25 L726.75,390.25 L724.25,387.75 L723.5,384.25 L723.5,377 L724,375.75 L724,374.25 L725,372.5 Z M707.25,368.25 L704.75,369.5 L703.25,371.25 L702.25,373.25 L701.5,377.5 L701.5,383.75 L702.25,388 L703.5,390.5 L705,392 L706.25,392.25 L707.25,393 L710.75,393 L712.25,392 L713,392 L715,389.75 L716,387.25 L716.5,382.5 L716,374 L715,371.5 L713,369.25 L712.25,369.25 L710.75,368.25 Z M707.25,371 L710.5,371 L711.75,371.75 L713.25,373.75 L714,376.75 L713.75,385.75 L712.5,388.75 L710.5,390.25 L706.75,390 L705.25,388.5 L704.25,386.25 L704,376.5 L705.25,372.75 Z M675.75,368.25 L674.25,369.25 L673.5,369.25 L671.25,372 L670.25,375 L670.25,386.25 L671.25,389.25 L673.5,392 L674.75,392.25 L675.75,393 L679,393 L681.75,391.75 L684,388.75 L685,384.5 L685,377 L684,372.5 L681.75,369.5 L679,368.25 Z M676,371 L679.5,371.25 L681.25,372.75 L682.25,375.5 L682.25,385.75 L681.25,388.5 L679.25,390.25 L675.75,390.25 L673.25,387.75 L672.5,384.25 L672.5,377 L673,375.75 L673,374.25 L674,372.5 Z M651.5,369.25 L651,369.75 L651,372.25 L652,372.25 L653.5,371.25 L658.75,371 L660,371.75 L661.25,373.25 L661.5,376.25 L661,378.25 L659.25,380.75 L654,386.25 L650.25,389.5 L650.25,392.75 L664.75,393 L664.75,390.25 L654,390.25 L653.5,389.75 L659.75,383.75 L663,379.75 L664,377.25 L664,372.5 L662.5,370.25 L660.75,369 L659.75,369 L659,368.25 L655,368.25 L653.75,369 Z M639,368.25 L635.5,368.25 L634.5,369 L633.25,369.25 L630.75,371.75 L629.75,374.25 L629.5,377.75 L630,379.75 L631,381.5 L632.5,383 L635,384 L638.75,384 L639.5,383.25 L640.25,383.25 L641.5,382.5 L642.25,383.25 L642,385.25 L641.25,386.75 L639,389.25 L637,390.25 L633.25,390.25 L632,389.75 L631.75,392 L632.5,393 L636.5,393 L637.5,392.25 L639.25,392 L640.75,391 L643,388.5 L644.75,383.75 L645,375.75 L644,372.5 L641.5,369.5 L639.75,369 Z M633.25,372.5 L635.25,371 L638.75,371 L640,371.75 L641.25,373 L642.25,375 L642.25,379.75 L640,381.25 L635.25,381.25 L633.75,380.25 L632.5,378.75 L632,376.75 L632.25,374.5 Z M604.75,368.25 L603.25,369.25 L602.5,369.25 L600.25,372 L599.25,375 L599.25,386.25 L600.25,389.25 L602.5,392 L603.75,392.25 L604.75,393 L608,393 L610.75,391.75 L613,388.75 L614,384.5 L614,377 L613,372.5 L610.75,369.5 L608,368.25 Z M605,371 L608.5,371.25 L610.25,372.75 L611.25,375.5 L611.25,385.75 L610.25,388.5 L608.25,390.25 L604.75,390.25 L602.25,387.75 L601.5,384.25 L601.5,377 L602,375.75 L602,374.25 L603,372.5 Z M556.25,368.25 L553,369.5 L550.75,371.25 L549.25,373.25 L548.25,375.5 L548.25,376.5 L547.5,377.25 L546.75,377.25 L546,378.25 L547.5,379.5 L547.5,381.75 L546.25,382.75 L546,383.5 L546.5,384 L547.5,384 L548.25,384.75 L548.25,386.25 L549.5,388.5 L551.5,390.75 L553.25,392 L556.25,393 L560,393 L563,392 L564,391 L564,388.75 L563.5,388.5 L560.75,390.25 L556,390.25 L554,389.25 L551.75,387 L550.75,384.5 L551.25,384 L555,384 L556,383.25 L556,382.5 L550.75,382.25 L550,381.5 L550,379.75 L550.75,379 L556.75,379 L557.75,378 L557.5,377.25 L551.25,377.25 L550.75,376.75 L552,374 L554,372 L556,371 L560.25,371 L562.75,372 L563.5,372.75 L564,372.5 L564,370 L563.25,369.25 L561.5,369 L560.5,368.25 Z M474.5,368.25 L473.75,369 L472,369.25 L469.5,371.5 L468.5,374 L468.5,376.25 L469.25,378.5 L472.25,381 L474.75,381.25 L475.75,382 L479.5,382.25 L481,383 L482.5,384.75 L482.75,387 L481.5,389 L479,390.25 L473.25,390 L470.75,389 L468.5,387.5 L468.25,390.75 L470.25,392 L472.75,392.25 L473.5,393 L478.75,393 L479.5,392.25 L480.75,392.25 L483,391 L484.25,389.5 L485.25,386.75 L485,383.25 L484,381.75 L482,380.25 L480.25,380 L479,379.25 L475,379 L474,378.25 L472.75,378 L471.25,376.25 L471,374 L472.25,372.25 L474.5,371 L481,371.25 L484,372.5 L484.25,370 L483.5,369.25 L480.5,369 L479.75,368.25 Z M394.75,368.25 L393.75,369 L392,369.25 L390.25,370.25 L388.25,372.25 L387.25,374 L386.25,377 L386.25,384.25 L388.25,389 L391.5,392 L393.75,392.25 L394.5,393 L399,393 L404,391 L404.25,388 L403.5,388 L402.25,389 L399,390.25 L394.75,390.25 L392.5,389.25 L390.25,387 L389,384.25 L389,377 L390.25,374.25 L393.75,371.25 L399,371 L402.25,372.25 L404,373.5 L404.25,370.5 L402.25,369.25 L400.25,369 L399,368.25 Z M265.75,347.25 L261.75,349 L258.5,352.5 L257.25,355.75 L257.25,360 L258.5,363.25 L260,365.25 L262.5,367.25 L266.25,368.5 L271,368.25 L274.5,366.5 L277.5,363 L278.75,359.25 L278.5,355.25 L276.75,351.5 L273,348.25 L270.25,347.25 Z M267,348.5 L270.25,348.75 L273.5,350.25 L275.75,352.75 L277,355.25 L277.25,357 L277,360.5 L275.25,363.75 L272.75,366 L269.5,367.25 L266.5,367.25 L262.75,365.75 L260.25,363.25 L258.75,359.25 L259,355.25 L260.25,352.5 L262.75,350 Z M264.75,351.75 L264,352.75 L264,363.5 L265,364 L265.5,363.25 L265.5,359.25 L266.25,358.5 L267.75,358.5 L269.25,360 L271.5,363.75 L272.75,364 L272.75,363 L270.25,359.75 L270.25,358.5 L272.25,357 L273,355.5 L272.25,353 L271.5,352.25 L270,351.75 Z M265.5,353.5 L266,353 L269.75,353 L271.25,354.25 L271.5,355.5 L269.75,357.25 L266,357.25 L265.25,356.25 Z M621.5,336.25 L621.25,340.75 L624,341 L624.25,336.5 Z M539.75,336.5 L539.75,340.75 L542.75,341 L543,336.5 Z M426.75,336.5 L426.75,340.75 L429.75,341 L430,336.5 Z M402.5,336.25 L402.25,340.75 L405,341 L405.25,336.5 Z M579.25,323.25 L578.75,323.5 L578.75,340.75 L580.75,341 L581,323.5 Z M608.5,322.25 L607.75,323 L606.25,323.25 L603.25,326.5 L602.25,331 L602.5,334.25 L603.25,336.75 L605.75,339.75 L607.75,340.25 L608.5,341 L612,341 L615.25,339.75 L615.75,338.75 L615.75,337 L615.25,336.75 L612,338.25 L608.75,338.25 L606.75,337 L605.25,334.75 L605,333.5 L605.25,328.5 L606.25,326.75 L608.25,325.25 L612,325 L615.5,326.5 L615.75,324.5 L615,323.25 L612,322.25 Z M591.25,322.25 L590.25,323 L589,323.25 L587.5,324.5 L586.5,327 L587,330 L589.25,332 L591.25,332.25 L592.25,333 L594.75,333.25 L596.5,334.75 L596.75,336.25 L595.25,338 L594.5,338.25 L590.25,338.25 L587,336.75 L586.5,336.75 L586.25,338.25 L586.5,339.25 L587.25,340 L590.25,341 L594.25,341 L596.75,340 L599,337.75 L599,333.25 L597,331.25 L595,331 L594,330.25 L592.25,330.25 L590.75,329.75 L589.25,328.5 L589,327 L591,325 L595,325 L598.5,326.5 L598.75,324.5 L598,323.25 L596.25,323 L595,322.25 Z M504.25,322.25 L501.75,323.5 L499.25,326.5 L498.5,329.25 L498.5,334 L499.25,336.75 L501.75,339.75 L504.25,341 L507.75,341 L508.75,340.25 L510,340 L512.75,336.75 L513.75,332.75 L513.75,330.5 L512.75,326.5 L510,323.25 L508.75,323 L507.75,322.25 Z M504.25,325 L507.5,325 L510,326.75 L511,329.25 L511.25,332 L510.25,336 L507.5,338.25 L503.75,338 L502,336.25 L501.25,334.75 L501.25,328.5 L502,327 Z M453.25,322.25 L450.5,323.5 L448.25,325.75 L447,329.25 L447.25,335.75 L449.25,338.75 L451.5,340.25 L452.75,340.25 L453.5,341 L457.75,341 L458.5,340.25 L460.75,340 L461.25,339.5 L461.25,336.75 L459.5,337.25 L458,338.25 L453.25,338.25 L451.5,337.25 L450,335.75 L449.25,333.75 L450,333 L461.75,333 L461.75,328.5 L461,326 L458.75,323.25 L456.75,322.25 Z M449.5,329 L450.25,327.25 L453,325 L456.5,325 L458.5,326.5 L459.25,327.75 L459.5,329.5 L458.75,330.25 L450,330.25 L449.5,329.75 Z M11.5,318.25 L11.25,319.25 L12,321 L14.5,333.25 L15.25,334.75 L16.5,341.75 L17.25,343.25 L17.5,345.75 L19.25,351.75 L19.25,353 L22.75,367.25 L28.5,367.75 L29.25,367.5 L30,366.5 L31.25,359 L32,357 L33,350.75 L35,342.5 L35,341 L35.75,339.25 L36,336.5 L36.75,334.25 L37,331 L38,330.25 L38.75,331.5 L39.25,335.75 L40,337.75 L40.5,341.5 L41.25,343.5 L46,366.75 L46.5,367.5 L53.25,367.5 L53.75,367 L54,364.75 L54.75,362.75 L55.25,359.25 L60.75,337 L61,334.5 L62.75,328.25 L64.75,318.5 L58.5,318.25 L58,319 L53,344 L52.25,346 L51,353.75 L50.25,356 L49.5,356.25 L49,355.25 L49,353.5 L48.25,351.25 L45.75,338.75 L45.75,337.25 L41.75,318.5 L34.25,318.5 L27.25,353.5 L27.25,355.25 L26.75,356 L26.25,356 L25.25,353.25 L25,350.25 L23.25,343.25 L18.75,319 L18,318.25 Z M829.25,317.25 L828.25,318.75 L826.25,320.25 L824,320.25 L823.5,320.75 L823.5,322.5 L824,323 L827.75,323 L828.25,323.5 L828.25,337.75 L827.75,338.25 L824,338.25 L823.5,338.75 L823.5,340.5 L824,341 L835,341 L835,338.25 L831.5,338.25 L830.75,337.5 L831,318 L830.5,317.25 Z M771.5,317.25 L770.25,318.25 L760.25,330.75 L760.25,333.5 L760.75,334 L770.75,334 L771.25,334.5 L771.25,340.75 L773.5,341 L774,340.5 L773.75,334.75 L774.5,334 L776.75,334 L777.25,333.5 L777.25,331.75 L776.75,331.25 L774.5,331.25 L773.75,330.5 L774,317.75 L773.5,317.25 Z M770.75,321.25 L771.25,321.75 L771.25,330.75 L770.75,331.25 L763.25,331.25 L763,330.25 L763.75,329.75 L769.75,322 Z M676.75,317.25 L662.5,317.25 L662,317.75 L662,319.5 L662.5,320 L674.5,320 L675,320.5 L673,324.5 L672.25,325.25 L671,328.5 L670.25,329.25 L667.75,334.5 L666.5,336.25 L665,339.75 L664.25,340.5 L664.5,341 L666.75,341 L669.75,336 L676,323 L677,321.75 L677.25,317.75 Z M578.75,317.25 L578.25,317.75 L578.25,319.5 L578.75,320 L581,320 L581.25,317.5 Z M574.5,317.25 L561,317.5 L561.25,341 L563.25,340.75 L563.5,330.25 L572.75,330 L573.25,329.5 L573.25,327.75 L572.75,327.25 L563.5,327 L563.25,320.5 L564,320 L574.5,320 L575,319.5 L575,317.75 Z M412.25,317.25 L412,319.75 L414.25,320 L415,320.5 L415,337.75 L414.25,338.25 L412.25,338.25 L412,340.75 L420,341 L420.25,338.5 L418,338.25 L417.25,337.75 L417.25,320.5 L418,320 L420,320 L420.25,317.5 Z M395.75,317.25 L387.25,317.5 L387.5,341 L390,340.75 L390,332.5 L390.5,332 L395.5,332 L396.5,331.25 L398,331 L400,329.25 L401,327.75 L401.75,324.75 L401,320.75 L398.75,318.5 L397.75,318 L396.5,318 Z M390.5,320 L395.75,320 L398.25,321.75 L399,323 L399.25,324.5 L398.75,326.5 L397,328.5 L395.25,329.25 L390.5,329.25 L390,328.75 L390,320.5 Z M92.25,316.75 L87.75,316.75 L85,317.5 L80.75,320.25 L79.25,322 L77.75,324.75 L76.75,324.5 L76.5,318.25 L71.25,318.25 L70.75,318.75 L70.75,386.75 L71.5,387.5 L76.5,387.5 L77.5,386.75 L77.5,363.75 L78.25,363.5 L80.5,366 L82.25,367.25 L86.25,368.75 L90.25,369 L94,368 L97.25,366 L100,363.25 L102.75,359.25 L105,353.5 L105.25,351.25 L106,349.25 L106.25,339.75 L106,336.25 L104.75,330.5 L102.75,325.5 L100.25,321.75 L96.75,318.5 Z M90,324 L92,324.5 L94.5,326 L97.25,329.5 L98.25,332 L99.25,337 L99.5,345.5 L98.5,352 L96.25,357.25 L92.5,361 L90,362 L88,362.25 L83.75,361 L80.25,357.75 L78,353 L77,348 L77,341.5 L78,334.75 L79.25,331 L81,327.75 L83.25,325.5 L85,324.5 L87,324 Z M842.5,317.25 L842,317.75 L842,320.25 L843,320.25 L844.5,319.25 L849.75,319 L851,319.75 L852.25,321.25 L852.5,324.25 L852,326.25 L850.25,328.75 L845,334.25 L841.25,337.5 L841.25,340.75 L855.75,341 L855.75,338.25 L845,338.25 L844.5,337.75 L850.75,331.75 L854,327.75 L855,325.25 L855,320.5 L853.5,318.25 L851.75,317 L850.75,317 L850,316.25 L846,316.25 L844.75,317 Z M807.25,316.25 L804.75,317.5 L803.25,319.25 L802.25,321.25 L801.5,325.5 L801.5,331.75 L802.25,336 L803.5,338.5 L805,340 L806.25,340.25 L807.25,341 L810.75,341 L812.25,340 L813,340 L815,337.75 L816,335.25 L816.5,330.5 L816,322 L815,319.5 L813,317.25 L812.25,317.25 L810.75,316.25 Z M807.25,319 L810.5,319 L811.75,319.75 L813.25,321.75 L814,324.75 L813.75,333.75 L812.5,336.75 L810.5,338.25 L806.75,338 L805.25,336.5 L804.25,334.25 L804,324.5 L805.25,320.75 Z M787.25,316.25 L784.75,317.5 L783.25,319.25 L782.25,321.25 L781.5,325.5 L781.5,331.75 L782.25,336 L783.5,338.5 L785,340 L786.25,340.25 L787.25,341 L790.75,341 L792.25,340 L793,340 L795,337.75 L796,335.25 L796.5,330.5 L796,322 L795,319.5 L793,317.25 L792.25,317.25 L790.75,316.25 Z M787.25,319 L790.5,319 L791.75,319.75 L793.25,321.75 L794,324.75 L793.75,333.75 L792.5,336.75 L790.5,338.25 L786.75,338 L785.25,336.5 L784.25,334.25 L784,324.5 L785.25,320.75 Z M742.75,317.5 L742.25,318.25 L742.5,320.75 L746.25,319 L750.25,319 L751.75,320 L753,321.5 L753,324.75 L751.25,328.25 L741.75,337.75 L741.75,340.75 L756.5,340.75 L756.5,338.5 L756,338.25 L745.5,338.25 L745,337.75 L751,332 L755,326.75 L755.75,323.25 L755,319.5 L752.75,317.25 L750.25,316.25 L746.5,316.25 L745.5,317 Z M722.75,317.5 L722.25,318.25 L722.5,320.75 L726.25,319 L730.25,319 L731.75,320 L733,321.5 L733,324.75 L731.25,328.25 L721.75,337.75 L721.75,340.75 L736.5,340.75 L736.5,338.5 L736,338.25 L725.5,338.25 L725,337.75 L731,332 L735,326.75 L735.75,323.25 L735,319.5 L732.75,317.25 L730.25,316.25 L726.5,316.25 L725.5,317 Z M710.25,316.25 L707.25,316.25 L704.75,317.25 L703,318.75 L701.25,321.75 L701.25,327.25 L702.5,329.5 L703.75,330.75 L705.5,331.25 L706.25,332 L710,332 L713,330.75 L714,331.25 L713,334.5 L710.5,337.25 L708.25,338.25 L704.75,338.25 L703.5,337.75 L703.25,340.25 L704.25,341 L708,341 L709,340.25 L710.75,340 L713.75,337.5 L715,335.75 L715.25,334.25 L716,333 L716.5,329 L716,321.75 L715.25,320.75 L715,319.5 L712.75,317.25 Z M705,320.25 L707,319 L710.25,319 L713,321.25 L714,323.75 L714,327.75 L711,329.25 L707,329.25 L705.5,328.5 L704.25,327.25 L703.75,325.75 L704,321.75 Z M683.5,317.25 L683,317.75 L683,320.25 L684,320.25 L685.5,319.25 L690.75,319 L692,319.75 L693.25,321.25 L693.5,324.25 L693,326.25 L691.25,328.75 L686,334.25 L682.25,337.5 L682.25,340.75 L696.75,341 L696.75,338.25 L686,338.25 L685.5,337.75 L691.75,331.75 L695,327.75 L696,325.25 L696,320.5 L694.5,318.25 L692.75,317 L691.75,317 L691,316.25 L687,316.25 L685.75,317 Z M647.75,316.25 L646.25,317.25 L645.5,317.25 L643.25,320 L642.25,323 L642.25,334.25 L643.25,337.25 L645.5,340 L646.75,340.25 L647.75,341 L651,341 L653.75,339.75 L656,336.75 L657,332.5 L657,325 L656,320.5 L653.75,317.5 L651,316.25 Z M648,319 L651.5,319.25 L653.25,320.75 L654.25,323.5 L654.25,333.75 L653.25,336.5 L651.25,338.25 L647.75,338.25 L645.25,335.75 L644.5,332.25 L644.5,325 L645,323.75 L645,322.25 L646,320.5 Z M532,316.25 L530,316.5 L529.75,323 L528,323 L527,322.25 L524,322.25 L521.75,323.25 L519.5,325.5 L518.25,328.25 L518.25,335.75 L520.25,339.25 L523,341 L525.75,341 L526.75,340.25 L528,340 L529,339 L530,339.5 L530.25,341 L532.25,340.75 Z M524,325 L528,325 L530,326.5 L530,336 L528.75,337.25 L526.5,338.25 L523,338 L521.25,336.25 L520.5,333.25 L520.5,330.25 L521,328.25 L522,326.5 Z M485.75,316.25 L484.75,317 L483,317.25 L481.25,318.25 L479.25,320.25 L478.25,322 L477.25,325 L477.25,332.25 L479.25,337 L482.5,340 L484.75,340.25 L485.5,341 L490,341 L495,339 L495.25,336 L494.5,336 L493.25,337 L490,338.25 L485.75,338.25 L483.5,337.25 L481.25,335 L480,332.25 L480,325 L481.25,322.25 L484.75,319.25 L490,319 L493.25,320.25 L495,321.5 L495.25,318.5 L493.25,317.25 L491.25,317 L490,316.25 Z M808.75,284.5 L808.75,288.75 L811.75,289 L812,284.5 Z M496.75,284.5 L496.75,288.75 L499.75,289 L500,284.5 Z M583.5,277.75 L583.5,279.5 L584,280 L592.25,280 L592.75,279.5 L592.75,277.75 L592.25,277.25 L584,277.25 Z M742.75,271.75 L743.25,274.25 L744,275.75 L744.25,278.25 L745,279.75 L745.25,282.75 L746,284.25 L746.25,286.75 L747.25,289 L749.25,288.75 L750,287.25 L750,286.25 L753,277.5 L753,276.25 L753.5,275.75 L754.25,276.25 L755,277.75 L755.25,279.75 L756,281 L758.25,288.75 L760.75,288.75 L761.25,285.75 L762,284.25 L762.25,281.25 L764,275.75 L764.25,273.25 L765,272 L764.75,271.25 L762.75,271.25 L762.25,271.75 L762,274.5 L761.5,275.25 L761,279.5 L760.25,281 L760.25,283.25 L759.75,284.25 L758.25,282.75 L758,280.75 L757.25,279.5 L757,277.5 L756.25,276.25 L756,274.5 L754.75,271.25 L753.25,271.25 L752.25,272.75 L752,274.75 L751.25,276 L749.25,283.75 L748.75,284.25 L748,283.75 L747.25,281.5 L747,278.5 L746.25,276.5 L745.5,272 L745,271.25 L743.25,271.25 Z M697.75,271.75 L698.25,274.25 L699,275.75 L699.25,278.25 L700,279.75 L700.25,282.75 L701,284.25 L701.25,286.75 L702.25,289 L704.25,288.75 L705,287.25 L705,286.25 L708,277.5 L708,276.25 L708.5,275.75 L709.25,276.25 L710,277.75 L710.25,279.75 L711,281 L713.25,288.75 L715.75,288.75 L716.25,285.75 L717,284.25 L717.25,281.25 L719,275.75 L719.25,273.25 L720,272 L719.75,271.25 L717.75,271.25 L717.25,271.75 L717,274.5 L716.5,275.25 L716,279.5 L715.25,281 L715.25,283.25 L714.75,284.25 L713.25,282.75 L713,280.75 L712.25,279.5 L712,277.5 L711.25,276.25 L711,274.5 L709.75,271.25 L708.25,271.25 L707.25,272.75 L707,274.75 L706.25,276 L704.25,283.75 L703.75,284.25 L703,283.75 L702.25,281.5 L702,278.5 L701.25,276.5 L700.5,272 L700,271.25 L698.25,271.25 Z M609.5,271.25 L609.25,288.75 L611,289 L611.5,288.75 L611.5,271.5 Z M430.75,271.75 L431.25,274.25 L432,275.75 L432.25,278.25 L433,279.75 L433.25,282.75 L434,284.25 L434.25,286.75 L435.25,289 L437.25,288.75 L438,287.25 L438,286.25 L441,277.5 L441,276.25 L441.5,275.75 L442.25,276.25 L443,277.75 L443.25,279.75 L444,281 L446.25,288.75 L448.75,288.75 L449.25,285.75 L450,284.25 L450.25,281.25 L452,275.75 L452.25,273.25 L453,272 L452.75,271.25 L450.75,271.25 L450.25,271.75 L450,274.5 L449.5,275.25 L449,279.5 L448.25,281 L448.25,283.25 L447.75,284.25 L446.25,282.75 L446,280.75 L445.25,279.5 L445,277.5 L444.25,276.25 L444,274.5 L442.75,271.25 L441.25,271.25 L440.25,272.75 L440,274.75 L439.25,276 L437.25,283.75 L436.75,284.25 L436,283.75 L435.25,281.5 L435,278.5 L434.25,276.5 L433.5,272 L433,271.25 L431.25,271.25 Z M385.75,271.75 L386.25,274.25 L387,275.75 L387.25,278.25 L388,279.75 L388.25,282.75 L389,284.25 L389.25,286.75 L390.25,289 L392.25,288.75 L393,287.25 L393,286.25 L396,277.5 L396,276.25 L396.5,275.75 L397.25,276.25 L398,277.75 L398.25,279.75 L399,281 L401.25,288.75 L403.75,288.75 L404.25,285.75 L405,284.25 L405.25,281.25 L407,275.75 L407.25,273.25 L408,272 L407.75,271.25 L405.75,271.25 L405.25,271.75 L405,274.5 L404.5,275.25 L404,279.5 L403.25,281 L403.25,283.25 L402.75,284.25 L401.25,282.75 L401,280.75 L400.25,279.5 L400,277.5 L399.25,276.25 L399,274.5 L397.75,271.25 L396.25,271.25 L395.25,272.75 L395,274.75 L394.25,276 L392.25,283.75 L391.75,284.25 L391,283.75 L390.25,281.5 L390,278.5 L389.25,276.5 L388.5,272 L388,271.25 L386.25,271.25 Z M854.5,271.75 L854.5,288.5 L855,289 L857,288.75 L857,275.5 L858.25,274.25 L860.5,273 L863.5,273 L865.25,275 L865.25,288.5 L865.75,289 L868,288.75 L868.25,275 L871.25,273 L874.5,273 L876.25,275 L876.25,288.5 L876.75,289 L879,288.75 L879,276 L878,272.5 L877,271.25 L875,270.25 L872.25,270.25 L870.25,271.25 L867.75,273.5 L865.5,271 L864,270.25 L861.5,270.25 L860.25,271.25 L859.5,271.25 L857.75,273 L857,272.5 L856.75,271.25 L855,271.25 Z M840.25,270.25 L837.75,271.5 L835.25,274.5 L834.5,277.25 L834.5,282 L835.25,284.75 L837.75,287.75 L840.25,289 L843.75,289 L844.75,288.25 L846,288 L848.75,284.75 L849.75,280.75 L849.75,278.5 L848.75,274.5 L846,271.25 L844.75,271 L843.75,270.25 Z M840.25,273 L843.5,273 L846,274.75 L847,277.25 L847.25,280 L846.25,284 L843.5,286.25 L839.75,286 L838,284.25 L837.25,282.75 L837.25,276.5 L838,275 Z M824.25,270.25 L820.5,272.25 L818.25,275.75 L818.25,283.75 L819.25,285.75 L821.5,288 L824.25,289 L827.75,289 L831,287.5 L831,284.75 L828,286.25 L824,286.25 L822.25,285 L821,283.25 L820.5,281.25 L820.5,278 L821.25,275.5 L824,273 L828,273 L831,274.5 L831.25,272.75 L830.5,271.25 L828.5,271 L827.75,270.25 Z M775.25,270.25 L772.5,271.5 L770.25,273.75 L769,277.25 L769.25,283.75 L771.25,286.75 L773.5,288.25 L774.75,288.25 L775.5,289 L779.75,289 L780.5,288.25 L782.75,288 L783.25,287.5 L783.25,284.75 L781.5,285.25 L780,286.25 L775.25,286.25 L773.5,285.25 L772,283.75 L771.25,281.75 L772,281 L783.75,281 L783.75,276.5 L783,274 L780.75,271.25 L778.75,270.25 Z M771.5,277 L772.25,275.25 L775,273 L778.5,273 L780.5,274.5 L781.25,275.75 L781.5,277.5 L780.75,278.25 L772,278.25 L771.5,277.75 Z M606.25,295.5 L606.5,296.5 L607,296.75 L881.25,296.75 L882,296 L881.5,295 L727.5,295 L727,294.25 L727,288.5 L727.5,288 L728.25,288 L730.25,289 L733,289 L735.75,287.75 L738,285 L739,282.25 L739,276 L738.25,274.75 L738,273.25 L736,271.25 L734,270.25 L731.25,270.25 L730.5,271 L728.75,271.5 L728.25,272.25 L727.5,272.25 L726.75,271.25 L725,271.25 L724.5,271.75 L724.5,294.5 L724,295 L606.75,295 Z M730.25,273 L733.5,273 L735.5,274.75 L736.25,276 L736.25,282.75 L735.25,284.5 L733,286.25 L729,286.25 L727,284.75 L727,275.5 L728,274.25 L729,274 Z M653.25,270.25 L650.75,271.5 L648.25,274.5 L647.5,277.25 L647.5,282 L648.25,284.75 L650.75,287.75 L653.25,289 L656.75,289 L657.75,288.25 L659,288 L661.75,284.75 L662.75,280.75 L662.75,278.5 L661.75,274.5 L659,271.25 L657.75,271 L656.75,270.25 Z M653.25,273 L656.5,273 L659,274.75 L660,277.25 L660.25,280 L659.25,284 L656.5,286.25 L652.75,286 L651,284.25 L650.25,282.75 L650.25,276.5 L651,275 Z M628,270.5 L624.5,270.25 L623,271.25 L622.25,271.25 L621,272.5 L620.5,272.5 L619.75,271.25 L618,271.25 L617.5,271.75 L617.5,288.5 L618,289 L620,288.75 L620,275.5 L621.25,274.25 L623.75,273 L626.75,273 L628.25,274.25 L629,276.25 L629,288.75 L631.25,288.75 L631,273.5 L630,272 Z M542.5,271.75 L542.5,288.5 L543,289 L545,288.75 L545,275.5 L546.25,274.25 L548.5,273 L551.5,273 L553.25,275 L553.25,288.5 L553.75,289 L556,288.75 L556.25,275 L559.25,273 L562.5,273 L564.25,275 L564.25,288.5 L564.75,289 L567,288.75 L567,276 L566,272.5 L565,271.25 L563,270.25 L560.25,270.25 L558.25,271.25 L555.75,273.5 L553.5,271 L552,270.25 L549.5,270.25 L548.25,271.25 L547.5,271.25 L545.75,273 L545,272.5 L544.75,271.25 L543,271.25 Z M528.25,270.25 L525.75,271.5 L523.25,274.5 L522.5,277.25 L522.5,282 L523.25,284.75 L525.75,287.75 L528.25,289 L531.75,289 L532.75,288.25 L534,288 L536.75,284.75 L537.75,280.75 L537.75,278.5 L536.75,274.5 L534,271.25 L532.75,271 L531.75,270.25 Z M528.25,273 L531.5,273 L534,274.75 L535,277.25 L535.25,280 L534.25,284 L531.5,286.25 L527.75,286 L526,284.25 L525.25,282.75 L525.25,276.5 L526,275 Z M512.25,270.25 L508.5,272.25 L506.25,275.75 L506.25,283.75 L507.25,285.75 L509.5,288 L512.25,289 L515.75,289 L519,287.5 L519,284.75 L516,286.25 L512,286.25 L510.25,285 L509,283.25 L508.5,281.25 L508.5,278 L509.25,275.5 L512,273 L516,273 L519,274.5 L519.25,272.75 L518.5,271.25 L516.5,271 L515.75,270.25 Z M462.5,270.25 L461.75,271 L460.25,271.25 L457.25,274.5 L456.25,278.5 L456.25,281.25 L457.25,284.75 L460,287.75 L463.25,289 L467,289 L470.75,287.5 L470.75,284.75 L467,286.25 L463.25,286.25 L461,285.25 L459.25,283.5 L459,281.5 L459.5,281 L471,281 L471,275.25 L469.75,272.75 L467.75,271 L467,271 L466,270.25 Z M459,276.75 L460,275 L462,273.25 L466.25,273 L468.25,274.75 L469,276.5 L469,277.75 L468.5,278.25 L459.5,278.25 L459,277.75 Z M384,295.75 L385,296.75 L569.75,296.5 L570,295.75 L569.25,295 L415.5,295 L415,294.25 L415,288.5 L415.5,288 L416.25,288 L418.25,289 L421,289 L423.75,287.75 L426,285 L427,282.25 L427,276 L426.25,274.75 L426,273.25 L424,271.25 L422,270.25 L419.25,270.25 L418.5,271 L416.75,271.5 L416.25,272.25 L415.5,272.25 L414.75,271.25 L413,271.25 L412.5,271.75 L412.5,294.5 L412,295 L384.5,295 Z M418.25,273 L421.5,273 L423.5,274.75 L424.25,276 L424.25,282.75 L423.25,284.5 L421,286.25 L417,286.25 L415,284.75 L415,275.5 L416,274.25 L417,274 Z M609.25,265.25 L609,267.75 L611.5,268 L612,267.5 L612,265.75 L611.5,265.25 Z M789,264.25 L788.5,264.75 L788.5,288.5 L789,289 L790.75,289 L791.5,288 L792.25,288 L794.25,289 L797.25,289 L799.75,287.75 L802,285 L803,282.25 L803,276 L802.25,274.75 L802,273.25 L800,271.25 L798,270.25 L795.25,270.25 L791.5,272.25 L791,271.75 L791,264.5 Z M794.25,273 L797.5,273 L799.25,274.25 L800.25,276 L800.25,282.75 L799.25,284.5 L797,286.25 L793,286.25 L791,284.75 L791,275.5 L792,274.25 L793,274 Z M678.25,264.25 L673.5,266.25 L670.25,269.25 L668.25,273 L667.5,276 L667.5,280.25 L668.25,283.75 L669.5,286.25 L673.25,290 L678.25,292 L683.5,292 L685.5,290.75 L685.5,289.75 L683,290.25 L676.75,290 L673.75,288.25 L671,285.25 L669.25,280.5 L669.25,275.75 L671,271.25 L674.25,267.75 L676.5,266.5 L678.25,266 L683,266 L684.75,266.5 L687.25,268 L689.25,270.25 L690.25,272.25 L691,274.75 L691,281 L690.25,283.5 L689.5,284.25 L686.25,284.25 L685.75,283.5 L686,270.75 L685.5,270.25 L684,270.25 L683,271 L682,271 L681,270.25 L678.5,270.25 L676.5,271.25 L674.25,274 L673.5,279 L674.25,282.75 L675.25,284.25 L677.5,286 L680,286 L683,284.25 L683.75,284.5 L684.25,286 L690.5,285.75 L692,283 L692.75,279.75 L692.5,274.75 L692,272.25 L690,268.5 L687.5,266.25 L685.75,265.25 L683.75,265 L682.75,264.25 Z M678.75,272 L682.5,272.25 L683.75,274 L683.5,281.5 L681,283.25 L678.25,283.25 L676.25,281.5 L676,280.75 L676,275 L677,273.25 Z M645.75,264.25 L641.75,264.25 L639.5,265.5 L638,268 L638,270.5 L636,271.5 L636,273.75 L637.75,274.5 L637.75,288.75 L638.25,289 L640.25,288.75 L640.25,274.5 L640.75,274 L645.25,273.75 L645.25,271.5 L640.75,271.25 L640,270.5 L640.25,268.75 L642,267 L646,267 L646.25,264.75 Z M477,264.25 L476.5,264.75 L476.5,288.5 L477,289 L478.75,289 L479.5,288 L480.25,288 L482.25,289 L485.25,289 L487.75,287.75 L490,285 L491,282.25 L491,276 L490.25,274.75 L490,273.25 L488,271.25 L486,270.25 L483.25,270.25 L479.5,272.25 L479,271.75 L479,264.5 Z M482.25,273 L485.5,273 L487.25,274.25 L488.25,276 L488.25,282.75 L487.25,284.5 L485,286.25 L481,286.25 L479,284.75 L479,275.5 L480,274.25 L481,274 Z M919.75,232.5 L919.75,236.75 L922.75,237 L923,232.5 Z M828.75,232.5 L828.75,236.75 L831.75,237 L832,232.5 Z M745.5,232.25 L745,232.75 L745,236.5 L745.5,237 L748,237 L748.25,232.5 Z M607.5,232.25 L607.25,236.75 L610,237 L610.25,232.5 Z M516.5,232.25 L516.25,236.75 L519,237 L519.25,232.5 Z M433,232.25 L432.5,232.75 L432.5,236.5 L433,237 L435.5,237 L436,236.5 L436,232.75 L435.5,232.25 Z M745.5,219.25 L745,219.75 L745,223.5 L745.5,224 L748,224 L748.25,219.5 Z M722.25,219.25 L722.25,220 L728,227.75 L728,228.75 L722.25,236.25 L722.25,237 L725,236.75 L729.5,230.25 L731.25,232 L734.25,236.75 L737.25,237 L737.5,236.5 L731.25,227.75 L737.5,219.5 L734.5,219.5 L732.25,223.25 L729.75,225.75 L725.25,219.5 Z M433,219.25 L432.5,219.75 L432.5,223.5 L433,224 L435.5,224 L436,223.5 L436,219.75 L435.5,219.25 Z M705.75,219 L705.25,219.5 L705.5,222 L706.75,221.25 L708.25,221 L713,221 L715,222.5 L715.5,224.5 L714.75,225.25 L712.25,225.25 L711,226 L707.25,226.25 L706.25,227.25 L705.75,227.25 L704.25,229 L704,230 L704.25,234 L706,236 L707.75,237 L711,237 L712,236.25 L713.75,235.75 L714.5,235 L715.5,235.5 L715.75,237 L717.5,237 L718,236.5 L717.75,222.5 L717,220.75 L715.5,219.25 L713,218.25 L708.25,218.25 L707.25,219 Z M715.5,228.75 L715.5,231.75 L715,232.75 L712.25,234.25 L708.5,234.25 L706.5,232.5 L706.75,230.25 L708,229 L709.5,228.25 L714.75,228 Z M408.25,218.25 L405.5,219.5 L403.25,221.75 L402,225.25 L402.25,231.75 L404.25,234.75 L406.5,236.25 L407.75,236.25 L408.5,237 L412.75,237 L413.5,236.25 L415.75,236 L416.25,235.5 L416.25,232.75 L414.5,233.25 L413,234.25 L408.25,234.25 L406.5,233.25 L405,231.75 L404.25,229.75 L405,229 L416.75,229 L416.75,224.5 L416,222 L413.75,219.25 L411.75,218.25 Z M404.5,225 L405.25,223.25 L408,221 L411.5,221 L413.5,222.5 L414.25,223.75 L414.5,225.5 L413.75,226.25 L405,226.25 L404.5,225.75 Z M964.25,213.25 L950,213.25 L949.5,213.75 L949.5,215.5 L950,216 L961.75,216 L962.25,216.5 L962.25,217.25 L960.25,220.25 L959,223.5 L958.25,224.25 L952,236.25 L952.25,237 L954,237 L955,236.25 L963.25,219.5 L964,218.75 L964.75,216.75 L964.75,213.75 Z M912.75,213.25 L898.5,213.25 L898,213.75 L898,215.5 L898.5,216 L910.5,216 L911,216.5 L909,220.5 L908.25,221.25 L907,224.5 L906.25,225.25 L903.75,230.5 L902.5,232.25 L901,235.75 L900.25,236.5 L900.5,237 L902.75,237 L905.75,232 L912,219 L913,217.75 L913.25,213.75 Z M814.5,213.25 L814,214.5 L812.25,216 L809.5,216.25 L809,216.75 L809,218.5 L809.5,219 L813,219 L813.75,219.5 L813.75,233.75 L813,234.25 L809.5,234.25 L809,234.75 L809,236.5 L809.5,237 L820.5,237 L821,236.5 L821,234.75 L820.5,234.25 L816.75,234.25 L816.25,233.75 L816.25,213.5 Z M794.5,213.25 L794,214.5 L792.25,216 L789.5,216.25 L789,216.75 L789,218.5 L789.5,219 L793,219 L793.75,219.5 L793.75,233.75 L793,234.25 L789.5,234.25 L789,234.75 L789,236.5 L789.5,237 L800.5,237 L801,236.5 L801,234.75 L800.5,234.25 L796.75,234.25 L796.25,233.75 L796.25,213.5 Z M702.5,213.25 L689,213.5 L689.25,237 L691.25,236.75 L691.5,226.25 L700.75,226 L701.25,225.5 L701.25,223.75 L700.75,223.25 L691.5,223 L691.25,216.5 L692,216 L702.5,216 L703,215.5 L703,213.75 Z M651.75,213.25 L637.5,213.25 L637,213.75 L637,215.5 L637.5,216 L649.5,216 L650,216.5 L648,220.5 L647.25,221.25 L646,224.5 L645.25,225.25 L642.75,230.5 L641.5,232.25 L640,235.75 L639.25,236.5 L639.5,237 L641.75,237 L644.75,232 L651,219 L652,217.75 L652.25,213.75 Z M600.75,213.25 L586.5,213.25 L586,213.75 L586,215.5 L586.5,216 L598.5,216 L599,216.5 L597,220.5 L596.25,221.25 L595,224.5 L594.25,225.25 L591.75,230.5 L590.5,232.25 L589,235.75 L588.25,236.5 L588.5,237 L590.75,237 L593.75,232 L600,219 L601,217.75 L601.25,213.75 Z M502.25,213.25 L501.25,214.75 L499.25,216.25 L497,216.25 L496.5,216.75 L496.5,218.5 L497,219 L500.75,219 L501.25,219.5 L501.25,233.75 L500.75,234.25 L497,234.25 L496.5,234.75 L496.5,236.5 L497,237 L508,237 L508,234.25 L504.5,234.25 L503.75,233.5 L504,214 L503.5,213.25 Z M482.25,213.25 L481.25,214.75 L479.25,216.25 L477,216.25 L476.5,216.75 L476.5,218.5 L477,219 L480.75,219 L481.25,219.5 L481.25,233.75 L480.75,234.25 L477,234.25 L476.5,234.75 L476.5,236.5 L477,237 L488,237 L488,234.25 L484.5,234.25 L483.75,233.5 L484,214 L483.5,213.25 Z M384.5,213.25 L384.5,216 L391.75,216 L392.25,216.5 L392.25,236.75 L394.75,237 L395,216.5 L395.5,216 L402.75,216 L403,213.5 Z M974.25,212.25 L972.75,213 L970.75,213.25 L970,214.25 L970,216.25 L970.75,216.5 L973,215.25 L974.25,215 L978.25,215 L980.25,216.5 L980.75,217.75 L980.25,220.25 L978.25,222 L975,222.25 L974.5,222.75 L974.5,224.5 L975,225 L978.25,225 L980.25,226.25 L981.25,228.25 L981,231.25 L979.75,233 L977.5,234.25 L973.5,234.25 L969.5,232.5 L969.25,235 L970.25,236 L972.75,236.25 L973.5,237 L977.75,237 L978.75,236.25 L980.25,236 L982,234.5 L983.25,232.5 L983.75,230.75 L983.75,228.5 L982.75,225.75 L981,224.25 L979.75,224.25 L979.25,223.75 L980,222.75 L981.75,221.75 L983,220 L983.25,216.5 L983,215.5 L980.75,213.25 L978.25,212.25 Z M931.5,212.25 L931,212.75 L931.25,224.5 L932,224.75 L933.25,224 L938.75,224.25 L941,225.75 L942,228 L942,229.5 L941.25,231.75 L940,233.25 L938.75,234 L934.25,234.25 L931,232.75 L930.25,232.75 L930.25,235.5 L930.75,236 L932.75,236.25 L934.25,237 L938,237 L940.75,236 L942,235 L944,232 L944,225.25 L943,223.75 L940.75,222 L939.5,222 L938.75,221.25 L934.25,221.25 L933.5,220.25 L933.5,216 L934.25,215 L944,215 L944.25,212.5 Z M880,212.25 L879.5,212.75 L879.5,224.75 L882,224 L887.5,224.25 L890,226.5 L890.25,230.5 L889,232.75 L887.25,234 L881.5,234 L881.25,233.5 L878.75,232.5 L878.5,234.75 L879.25,236 L881.75,236.25 L882.5,237 L886.75,237 L887.75,236.25 L889.5,235.75 L892,233 L893,230 L893,227.25 L892,224.25 L889.75,222.25 L887,221.25 L882.75,221.25 L882,220.5 L882,215.75 L882.75,215 L892.5,215 L893,214.5 L893,212.75 L892.5,212.25 Z M859.5,213.25 L859,213.75 L859,216.25 L860,216.25 L861.5,215.25 L866.75,215 L868,215.75 L869.25,217.25 L869.5,220.25 L869,222.25 L867.25,224.75 L862,230.25 L858.25,233.5 L858.25,236.75 L872.75,237 L872.75,234.25 L862,234.25 L861.5,233.75 L867.75,227.75 L871,223.75 L872,221.25 L872,216.5 L870.5,214.25 L868.75,213 L867.75,213 L867,212.25 L863,212.25 L861.75,213 Z M839.75,213.5 L839.25,214.25 L839.5,216.75 L843.25,215 L847.25,215 L848.75,216 L850,217.5 L850,220.75 L848.25,224.25 L838.75,233.75 L838.75,236.75 L853.5,236.75 L853.5,234.5 L853,234.25 L842.5,234.25 L842,233.75 L848,228 L852,222.75 L852.75,219.25 L852,215.5 L849.75,213.25 L847.25,212.25 L843.5,212.25 L842.5,213 Z M772.75,212.25 L771.25,213.25 L770.5,213.25 L768.25,216 L767.25,219 L767.25,230.25 L768.25,233.25 L770.5,236 L771.75,236.25 L772.75,237 L776,237 L778.75,235.75 L781,232.75 L782,228.5 L782,221 L781,216.5 L778.75,213.5 L776,212.25 Z M773,215 L776.5,215.25 L778.25,216.75 L779.25,219.5 L779.25,229.75 L778.25,232.5 L776.25,234.25 L772.75,234.25 L770.25,231.75 L769.5,228.25 L769.5,221 L770,219.75 L770,218.25 L771,216.5 Z M662.75,212.25 L661.25,213.25 L660.5,213.25 L658.25,216 L657.25,219 L657.25,230.25 L658.25,233.25 L660.5,236 L661.75,236.25 L662.75,237 L666,237 L668.75,235.75 L671,232.75 L672,228.5 L672,221 L671,216.5 L668.75,213.5 L666,212.25 Z M663,215 L666.5,215.25 L668.25,216.75 L669.25,219.5 L669.25,229.75 L668.25,232.5 L666.25,234.25 L662.75,234.25 L660.25,231.75 L659.5,228.25 L659.5,221 L660,219.75 L660,218.25 L661,216.5 Z M619,212.25 L618.5,212.75 L618.5,224.75 L621,224 L626.5,224.25 L629,226.5 L629.25,230.5 L628,232.75 L626.25,234 L620.5,234 L620.25,233.5 L617.75,232.5 L617.5,234.75 L618.25,236 L620.75,236.25 L621.5,237 L625.75,237 L626.75,236.25 L628.5,235.75 L631,233 L632,230 L632,227.25 L631,224.25 L628.75,222.25 L626,221.25 L621.75,221.25 L621,220.5 L621,215.75 L621.75,215 L631.5,215 L632,214.5 L632,212.75 L631.5,212.25 Z M568,212.25 L567.5,212.75 L567.5,224.75 L570,224 L575.5,224.25 L578,226.5 L578.25,230.5 L577,232.75 L575.25,234 L569.5,234 L569.25,233.5 L566.75,232.5 L566.5,234.75 L567.25,236 L569.75,236.25 L570.5,237 L574.75,237 L575.75,236.25 L577.5,235.75 L580,233 L581,230 L581,227.25 L580,224.25 L577.75,222.25 L575,221.25 L570.75,221.25 L570,220.5 L570,215.75 L570.75,215 L580.5,215 L581,214.5 L581,212.75 L580.5,212.25 Z M547.5,213.25 L547,213.75 L547,216.25 L548,216.25 L549.5,215.25 L554.75,215 L556,215.75 L557.25,217.25 L557.5,220.25 L557,222.25 L555.25,224.75 L550,230.25 L546.25,233.5 L546.25,236.75 L560.75,237 L560.75,234.25 L550,234.25 L549.5,233.75 L555.75,227.75 L559,223.75 L560,221.25 L560,216.5 L558.5,214.25 L556.75,213 L555.75,213 L555,212.25 L551,212.25 L549.75,213 Z M527.5,213.25 L527,213.75 L527,216.25 L528,216.25 L529.5,215.25 L534.75,215 L536,215.75 L537.25,217.25 L537.5,220.25 L537,222.25 L535.25,224.75 L530,230.25 L526.25,233.5 L526.25,236.75 L540.75,237 L540.75,234.25 L530,234.25 L529.5,233.75 L535.75,227.75 L539,223.75 L540,221.25 L540,216.5 L538.5,214.25 L536.75,213 L535.75,213 L535,212.25 L531,212.25 L529.75,213 Z M460.75,212.25 L459.25,213.25 L458.5,213.25 L456.25,216 L455.25,219 L455.25,230.25 L456.25,233.25 L458.5,236 L459.75,236.25 L460.75,237 L464,237 L466.75,235.75 L469,232.75 L470,228.5 L470,221 L469,216.5 L466.75,213.5 L464,212.25 Z M461,215 L464.5,215.25 L466.25,216.75 L467.25,219.5 L467.25,229.75 L466.25,232.5 L464.25,234.25 L460.75,234.25 L458.25,231.75 L457.5,228.25 L457.5,221 L458,219.75 L458,218.25 L459,216.5 Z M422.25,212.25 L421.75,212.5 L421.75,236.75 L423.75,237 L424,212.5 Z M567,180.25 L564.5,180.25 L564,180.75 L563.25,183.25 L563,186 L562.25,187.5 L562.25,189 L561.75,190 L562,191 L563,191 L564,189.75 L564.25,188.25 L567.25,181.25 Z M634.5,173.75 L634.5,175.5 L635,176 L643.25,176 L643.75,175.5 L643.75,173.75 L643.25,173.25 L635,173.25 Z M820.25,167.25 L819.75,167.5 L819.75,184.75 L821.75,185 L822,167.5 Z M816,167.25 L813.25,167.25 L812.25,168 L811,168.25 L810,169.25 L808.75,169.25 L808.5,167.5 L808,167.25 L806.5,167.25 L806,167.75 L806,184.5 L806.5,185 L808.5,184.75 L808.5,172.5 L810,171 L812,170 L816,170 Z M520,167.25 L517.25,167.25 L516.25,168 L515,168.25 L514,169.25 L512.75,169.25 L512.5,167.5 L512,167.25 L510.5,167.25 L510,167.75 L510,184.5 L510.5,185 L512.5,184.75 L512.5,172.5 L514,171 L516,170 L520,170 Z M471.25,167.25 L471.25,169 L472,170 L472.25,171.75 L473,172.75 L475.25,179.5 L476,180.5 L477.25,184.75 L479.75,185 L481,182.75 L481.25,181.25 L483,177.75 L483.25,176 L484,175 L485.25,170.75 L486.75,167.75 L486.25,167.25 L484.5,167.25 L484,167.75 L479.5,180.25 L478.5,181 L478,180.5 L478,179.25 L476.25,175.25 L476,173.5 L475.25,172.5 L475,170.75 L474.25,169.75 L474,168 L473,167.25 Z M464.5,167.25 L464.25,184.75 L466,185 L466.5,184.75 L466.5,167.5 Z M408.5,167.25 L408.25,184.75 L410,185 L410.5,184.75 L410.5,167.5 Z M852.75,166.25 L851.75,167 L850.5,167.25 L848.25,169.5 L848,170.75 L847.25,171.75 L847.25,179.5 L848,180.5 L848.25,181.75 L850.5,184 L851.75,184.25 L852.75,185 L856,185 L859.75,183 L861.25,180.75 L862,178.75 L862,172.5 L861,170 L858.75,167.5 L856,166.25 Z M853,169 L856.25,169 L858.25,170.5 L859.25,172.25 L859.25,179 L858.5,180.25 L856.25,182.25 L853,182.25 L851.75,181.5 L850.25,179.75 L849.5,177.25 L849.5,173.5 L850,172.75 L850,171.75 L851.75,169.75 Z M839.5,167 L838,166.25 L835.25,166.25 L832.5,167.5 L831.75,168.25 L831,168.25 L830,167.25 L828.5,167.25 L828,167.75 L828,184.5 L828.5,185 L830.5,184.75 L830.5,171.5 L831.75,170.25 L832.75,170 L834,169 L837.25,169 L839,170.75 L839.25,184.75 L842,184.75 L842,172 L841,168.5 Z M791.75,166.25 L790.75,167 L789.5,167.25 L787.25,169.5 L787,170.75 L786.25,171.75 L786.25,179.5 L787,180.5 L787.25,181.75 L789.5,184 L790.75,184.25 L791.75,185 L795,185 L798.75,183 L800.25,180.75 L801,178.75 L801,172.5 L800,170 L797.75,167.5 L795,166.25 Z M792,169 L795.25,169 L797.25,170.5 L798.25,172.25 L798.25,179 L797.5,180.25 L795.25,182.25 L792,182.25 L790.75,181.5 L789.25,179.75 L788.5,177.25 L788.5,173.5 L789,172.75 L789,171.75 L790.75,169.75 Z M548.25,166.25 L545.75,167.5 L543.25,170.5 L542.5,173.25 L542.5,178 L543.25,180.75 L545.75,183.75 L548.25,185 L551.75,185 L552.75,184.25 L554,184 L556.75,180.75 L557.75,176.75 L557.75,174.5 L556.75,170.5 L554,167.25 L552.75,167 L551.75,166.25 Z M548.25,169 L551.5,169 L554,170.75 L555,173.25 L555.25,176 L554.25,180 L551.5,182.25 L547.75,182 L546,180.25 L545.25,178.75 L545.25,172.5 L546,171 Z M534,166.5 L530.5,166.25 L529,167.25 L528.25,167.25 L527,168.5 L526.5,168.5 L525.75,167.25 L524,167.25 L523.5,167.75 L523.5,184.5 L524,185 L526,184.75 L526,171.5 L527.25,170.25 L529.75,169 L532.75,169 L534.25,170.25 L535,172.25 L535,184.75 L537.25,184.75 L537,169.5 L536,168 Z M495.75,166.25 L494.75,167 L493.5,167.25 L491.25,169.5 L491,170.75 L490.25,171.75 L490.25,179.5 L491,180.5 L491.25,181.75 L493.5,184 L494.75,184.25 L495.75,185 L499,185 L502.75,183 L504.25,180.75 L505,178.75 L505,172.5 L504,170 L501.75,167.5 L499,166.25 Z M496,169 L499.25,169 L501.25,170.5 L502.25,172.25 L502.25,179 L501.5,180.25 L499.25,182.25 L496,182.25 L494.75,181.5 L493.25,179.75 L492.5,177.25 L492.5,173.5 L493,172.75 L493,171.75 L494.75,169.75 Z M417.75,167 L417.25,167.5 L417.5,170 L418.75,169.25 L420.25,169 L425,169 L427,170.5 L427.5,172.5 L426.75,173.25 L424.25,173.25 L423,174 L419.25,174.25 L418.25,175.25 L417.75,175.25 L416.25,177 L416,178 L416.25,182 L418,184 L419.75,185 L423,185 L424,184.25 L425.75,183.75 L426.5,183 L427.5,183.5 L427.75,185 L429.5,185 L430,184.5 L429.75,170.5 L429,168.75 L427.5,167.25 L425,166.25 L420.25,166.25 L419.25,167 Z M427.5,176.75 L427.5,179.75 L427,180.75 L424.25,182.25 L420.5,182.25 L418.5,180.5 L418.75,178.25 L420,177 L421.5,176.25 L426.75,176 Z M875.5,161.25 L875.5,164 L882.75,164 L883.25,164.5 L883.25,184.75 L885.75,185 L886,164.5 L886.5,164 L893.75,164 L894,161.5 Z M819.75,161.25 L819.25,161.75 L819.25,163.5 L819.75,164 L822,164 L822.25,161.5 Z M768.5,161.25 L768.5,164 L775.75,164 L776.25,164.5 L776.25,184.75 L778.75,185 L779,164.5 L779.5,164 L786.75,164 L787,161.5 Z M749.5,161.25 L748.25,162.25 L738.25,174.75 L738.25,177.5 L738.75,178 L748.75,178 L749.25,178.5 L749.25,184.75 L751.5,185 L752,184.5 L751.75,178.75 L752.5,178 L754.75,178 L755.25,177.5 L755.25,175.75 L754.75,175.25 L752.5,175.25 L751.75,174.5 L752,161.75 L751.5,161.25 Z M748.75,165.25 L749.25,165.75 L749.25,174.75 L748.75,175.25 L741.25,175.25 L741,174.25 L741.75,173.75 L747.75,166 Z M729.5,161.25 L728.25,162.25 L718.25,174.75 L718.25,177.5 L718.75,178 L728.75,178 L729.25,178.5 L729.25,184.75 L731.5,185 L732,184.5 L731.75,178.75 L732.5,178 L734.75,178 L735.25,177.5 L735.25,175.75 L734.75,175.25 L732.5,175.25 L731.75,174.5 L732,161.75 L731.5,161.25 Z M728.75,165.25 L729.25,165.75 L729.25,174.75 L728.75,175.25 L721.25,175.25 L721,174.25 L721.75,173.75 L727.75,166 Z M707.5,161.25 L707,162.5 L705.25,164 L702.5,164.25 L702,164.75 L702,166.5 L702.5,167 L706,167 L706.75,167.5 L706.75,181.75 L706,182.25 L702.5,182.25 L702,182.75 L702,184.5 L702.5,185 L713.5,185 L714,184.5 L714,182.75 L713.5,182.25 L709.75,182.25 L709.25,181.75 L709.25,161.5 Z M667.5,161.25 L667,162.5 L665.25,164 L662.5,164.25 L662,164.75 L662,166.5 L662.5,167 L666,167 L666.75,167.5 L666.75,181.75 L666,182.25 L662.5,182.25 L662,182.75 L662,184.5 L662.5,185 L673.5,185 L674,184.5 L674,182.75 L673.5,182.25 L669.75,182.25 L669.25,181.75 L669.25,161.5 Z M464.25,161.25 L464,163.75 L466.5,164 L467,163.5 L467,161.75 L466.5,161.25 Z M447.25,161.25 L447,184.75 L460.25,185 L460.75,184.5 L460.75,182.75 L460.25,182.25 L450,182.25 L449.25,181.75 L449.25,161.5 Z M408.25,161.25 L408,163.75 L410.5,164 L411,163.5 L411,161.75 L410.5,161.25 Z M385.25,161.25 L385,162.25 L386,164.25 L387.25,169 L388,170 L390.25,177.75 L391,178.75 L391.25,180.75 L392,181.75 L392.25,183.5 L393.25,185 L396.25,185 L397,184.25 L397,183.25 L398,181.25 L399.25,176.5 L400,175.5 L401.25,170.75 L402,169.75 L402,168.75 L403,166.75 L404.5,161.5 L402.25,161.25 L401.25,163 L401,164.75 L400.25,166 L398,173.75 L396.25,177.75 L396,179.5 L395.25,181.25 L394.5,181.75 L394,181.25 L394,180.25 L388,162.25 L387,161.25 Z M903.75,160.25 L902.75,161 L901,161.25 L899.5,162.25 L897,165.5 L896.25,167.25 L895.5,171.5 L896,176.75 L897.5,180.75 L899.5,183 L901,184 L902.75,184.25 L903.75,185 L908,185 L909,184.25 L910.75,184 L914,181 L915,179.25 L915.5,176.5 L916,175.75 L916,169.5 L915,166 L914,164.25 L910.75,161.25 L908.75,161 L907.75,160.25 Z M904,163 L908.75,163.25 L911.5,165.5 L913.25,169 L913.5,173.75 L913,177.25 L911.5,179.75 L908.25,182.25 L904,182.25 L901.75,181.25 L899.25,178.5 L898.25,175.5 L898,171.5 L899,167.25 L900.5,165 L903,163.25 Z M685.75,160.25 L684.25,161.25 L683.5,161.25 L681.25,164 L680.25,167 L680.25,178.25 L681.25,181.25 L683.5,184 L684.75,184.25 L685.75,185 L689,185 L691.75,183.75 L694,180.75 L695,176.5 L695,169 L694,164.5 L691.75,161.5 L689,160.25 Z M686,163 L689.5,163.25 L691.25,164.75 L692.25,167.5 L692.25,177.75 L691.25,180.5 L689.25,182.25 L685.75,182.25 L683.25,179.75 L682.5,176.25 L682.5,169 L683,167.75 L683,166.25 L684,164.5 Z M609.25,160.25 L606.75,161.5 L605.25,163.25 L604.25,165.25 L603.5,169.5 L603.5,175.75 L604.25,180 L605.5,182.5 L607,184 L608.25,184.25 L609.25,185 L612.75,185 L614.25,184 L615,184 L617,181.75 L618,179.25 L618.5,174.5 L618,166 L617,163.5 L615,161.25 L614.25,161.25 L612.75,160.25 Z M609.25,163 L612.5,163 L613.75,163.75 L615.25,165.75 L616,168.75 L615.75,177.75 L614.5,180.75 L612.5,182.25 L608.75,182 L607.25,180.5 L606.25,178.25 L606,168.5 L607.25,164.75 Z M596.5,160.25 L592.5,160.25 L591.75,161 L589.75,161.25 L588.25,162.25 L586.5,164 L585.25,166 L584.25,169 L584.25,178.75 L586.25,182.5 L587.5,183.75 L590.25,185 L593.5,185 L594.5,184.25 L595.75,184 L597,183 L599,180.25 L599.25,174.5 L599,173.25 L597.25,171 L594,169.25 L590.25,169.25 L588,170.5 L587.25,170.5 L586.75,170 L587,168 L588,166 L590,164 L592,163 L595.75,163 L596.75,163.5 L597.25,163.25 L597.25,161.25 Z M587,173 L589.25,172 L593.5,172 L595,172.75 L596.25,174 L597,175.75 L597,178 L596,180.5 L593.5,182.25 L590.25,182.25 L588.75,181.25 L587,179.25 L587,178 L586.5,177 L586.5,173.5 Z M702.5,106.25 L702.25,113 L708.5,113.25 L709,112.25 L709,106.75 L708.5,106.25 Z M669.5,106.25 L669.25,113 L675.5,113.25 L676,112.25 L676,106.75 L675.5,106.25 Z M635.5,106.25 L635.25,113 L641.5,113.25 L642,112.25 L642,106.75 L641.5,106.25 Z M669.75,87.25 L663.75,87.25 L662.75,88 L660.75,88.5 L659,89.75 L658,89.25 L657.75,87.25 L653,87.25 L652.5,87.75 L652.5,112.75 L653,113.25 L658,113 L658.25,94.75 L661.75,92.25 L663.25,92 L664.5,91.25 L669.75,91.25 Z M548.25,78.25 L548.25,113.25 L565.25,113.25 L567.5,113 L568.5,112.25 L570,112 L571.75,110.75 L573.75,108.5 L575,106 L575.25,104.5 L575,99.25 L574,97.25 L572.5,95.5 L568.75,93.25 L569,92.5 L571.25,90.5 L572,89.25 L572.25,84 L571.25,81.75 L568.5,79.5 L565.5,79 L564.75,78.25 Z M553.75,96.75 L554.5,96.25 L563.75,96.25 L564.5,97 L566.5,97.25 L569.25,100 L569.25,105.25 L566.75,108 L565.5,108.25 L564.75,109 L553.75,109 Z M553.5,83.25 L554.5,82.25 L562,82.25 L563.25,83 L564.25,83 L566.25,85 L566.25,89.25 L564.5,91.25 L562,92.25 L554.25,92.25 L553.5,91.75 Z M517.25,78.25 L517.25,113.25 L540.75,113.25 L540.75,109.25 L523.25,109.25 L522.5,108 L522.75,97 L523.5,96.25 L540.75,96.25 L541,92.5 L523.25,92.25 L522.5,91 L522.75,83 L523.5,82.25 L540.75,82.25 L541,78.5 Z M466,78.25 L465.5,79 L466,79.75 L466.25,82.25 L467,83.75 L467.25,86 L469,91.25 L469.25,93.75 L471,98.75 L471.25,101.25 L473,106.25 L474.25,112.75 L474.75,113.25 L481,113 L482.25,106.75 L483,105.25 L483.25,102.75 L484,101.25 L484.25,98.75 L485,97.25 L485.25,94.75 L486,93.25 L486.25,90.75 L487.25,88.25 L487.75,88 L488.25,88.5 L489.25,94.25 L490,95.75 L490.25,98.25 L491,99.75 L491.25,102.25 L492,103.75 L492.25,106.25 L493,107.75 L494,112.75 L494.5,113.25 L500.25,113.25 L501,112.25 L501.25,110.25 L502,108.75 L502.25,106.25 L503,104.75 L504.25,98.5 L505,97.25 L505.25,94.75 L506,93.25 L506.25,90.75 L507,89.25 L507.25,86.75 L509,81.75 L509.5,78.5 L504.25,78.25 L503.75,79 L502,87.5 L501.25,89 L501,91.5 L500.25,93 L500,95.5 L498.25,101 L498.25,103 L497.5,104 L496.25,101.75 L496,99.5 L495.25,98 L495,95.5 L494.25,94 L494,91.5 L493.25,90 L493,87.5 L492.25,86 L492,83.5 L491.25,82 L491,79.5 L490.5,78.5 L485.25,78.25 L484.5,78.75 L483,86 L482.25,87.5 L482,90 L481.25,91.5 L481,94 L480.25,95.5 L480,98.5 L479.25,100 L479,102.5 L477.75,103.75 L477.25,103 L477,100.5 L476.25,99 L476,96.5 L475.25,95 L475,92.5 L474.25,91 L474,88.5 L473.25,87 L473,84.5 L472.25,83 L471.5,79 L471,78.25 Z M456,79.25 L453.25,79 L452,78.25 L438,78.5 L438.25,113.25 L443.25,113.25 L443.75,112.75 L443.75,101 L444.5,100.25 L454,100 L454.75,99.25 L457.75,98 L460,95.5 L461,93.75 L461.75,91.25 L461.75,86.5 L461,84 L458.5,81 Z M444.5,82.25 L449.75,82.25 L450.75,83 L452.25,83 L455,85.25 L456,87.5 L456,90.75 L455,93 L453,95 L449.75,96.25 L444.25,96.25 L443.75,95.75 L443.75,83 Z M387,78.25 L386.5,79 L387,79.75 L387.25,82.25 L388,83.75 L388.25,86 L390,91.25 L390.25,93.75 L392,98.75 L392.25,101.25 L394,106.25 L395.25,112.75 L395.75,113.25 L402,113 L403.25,106.75 L404,105.25 L404.25,102.75 L405,101.25 L405.25,98.75 L406,97.25 L406.25,94.75 L407,93.25 L407.25,90.75 L408.25,88.25 L408.75,88 L409.25,88.5 L410.25,94.25 L411,95.75 L411.25,98.25 L412,99.75 L412.25,102.25 L413,103.75 L413.25,106.25 L414,107.75 L415,112.75 L415.5,113.25 L421.25,113.25 L422,112.25 L422.25,110.25 L423,108.75 L423.25,106.25 L424,104.75 L425.25,98.5 L426,97.25 L426.25,94.75 L427,93.25 L427.25,90.75 L428,89.25 L428.25,86.75 L430,81.75 L430.5,78.5 L425.25,78.25 L424.75,79 L423,87.5 L422.25,89 L422,91.5 L421.25,93 L421,95.5 L419.25,101 L419.25,103 L418.5,104 L417.25,101.75 L417,99.5 L416.25,98 L416,95.5 L415.25,94 L415,91.5 L414.25,90 L414,87.5 L413.25,86 L413,83.5 L412.25,82 L412,79.5 L411.5,78.5 L406.25,78.25 L405.5,78.75 L404,86 L403.25,87.5 L403,90 L402.25,91.5 L402,94 L401.25,95.5 L401,98.5 L400.25,100 L400,102.5 L398.75,103.75 L398.25,103 L398,100.5 L397.25,99 L397,96.5 L396.25,95 L396,92.5 L395.25,91 L395,88.5 L394.25,87 L394,84.5 L393.25,83 L392.5,79 L392,78.25 Z M606.25,78.25 L602.75,80.5 L600.25,83.75 L599.75,86.25 L600.25,91.75 L602.5,94.75 L606.25,97 L609.25,97.25 L610.25,98 L614.75,98.25 L615.75,99 L617.25,99 L619.5,100 L621.25,102 L621.25,106.25 L619.5,108.25 L616.75,110 L611.25,110.25 L607.25,109.25 L603.25,107.25 L601.25,105.5 L599.75,105.25 L599.25,106 L599.5,111.5 L601.5,112.25 L602.25,113 L604.75,113.25 L605.5,114 L618.75,114 L623,112 L626,109 L627.25,105.25 L627,100 L625.75,97.75 L622.75,95.25 L621.25,95 L620,94.25 L616.75,94 L615.75,93.25 L611.5,93 L610.75,92.25 L609,92.25 L606,89.75 L605.25,87 L606,85 L607.75,83 L609.5,82 L610.75,82 L611.75,81.25 L615,81.25 L616.25,82 L618,82 L620.75,83 L625.25,85.5 L626,85 L626,80 L625.25,79.25 L624.25,79.25 L621,78 L618.5,78 L617.75,77.25 L609.75,77.25 L608.75,78 Z M687.25,76.25 L686.75,76.5 L686.75,112.75 L687.25,113.25 L691.75,113.25 L692,76.5 Z " fill="#231f20" fill-rule="evenodd"/>
      <path d="M111.25,318.25 L110.75,318.75 L111.25,321.25 L112,323.25 L114.5,335.25 L116.25,341.25 L116.5,343.75 L117.25,345.5 L117.25,346.75 L122.25,367.25 L128.75,367.5 L129.5,366.5 L136.5,331.75 L137,330.5 L137.5,330.25 L138.25,331.5 L139.5,339.25 L140.25,341 L140.5,344 L141.25,346 L141.5,348.75 L142.25,350.5 L142.25,352 L144.25,359.75 L145.5,366.75 L146,367.5 L146.75,367.75 L152.5,367.5 L153.75,365 L154,362.5 L158,346.5 L158.25,344 L160,338 L160,336.5 L161,333.5 L164.25,318.5 L158,318.25 L157.5,318.75 L154,336.75 L152.25,343.75 L152,346.5 L150.5,352 L150,355.75 L149.25,356.25 L148.5,355.25 L148,351 L144,332.75 L144,331 L143,328 L142,321.25 L141,318.25 L134,318.25 L133.5,318.75 L131.25,331.75 L130.5,334 L129,343.25 L127.25,350.75 L127,353.75 L126,356 L125.5,356 L125,355 L124.75,351.5 L124,349.5 L118,318.5 Z M185.5,316.75 L181.75,317.75 L178.5,319.5 L175,322.75 L172.75,326 L171.5,328.5 L169.5,335.5 L169,339.5 L169,348.5 L170,354.25 L171,357.25 L172.75,360.75 L175,363.75 L177.5,366 L181.25,368 L185.75,369 L189,369 L193.75,368 L196.25,367 L198.5,365.5 L201.25,362.75 L203,360.25 L204.5,356.5 L205.25,353.25 L205,352.5 L199,352.5 L197,357 L194,360.25 L192.25,361.25 L189,362.25 L185,362 L181.25,360.25 L178,356.25 L176.25,351.25 L175.75,347.25 L176,346.25 L176.5,345.75 L205.25,345.75 L205.75,344.25 L205.5,337.75 L204.75,332.5 L203.75,329 L201.5,324.25 L199.5,321.5 L197,319.25 L193.75,317.5 L190.75,316.75 Z M176,337 L177,333 L179.25,328.5 L181.5,326 L184.5,324.25 L189.25,324 L193,325.25 L196,328.25 L197.5,331.25 L198.25,334 L198.75,338.5 L197.75,339.25 L176.5,339.25 L176,338.75 Z M214.25,299.5 L213.5,300.25 L213.5,367 L214.75,367.75 L219.5,367.5 L220,366.75 L219.75,363.5 L220.75,363 L223.25,366 L226.5,368 L230.5,369 L233,369 L236,368.25 L238.75,367 L243,363 L246,358.25 L248,352.75 L249,347 L249,338.5 L247.25,329.75 L245,324.5 L243.25,322 L239.5,318.5 L235,316.75 L230.5,316.75 L227.75,317.5 L224.75,319.25 L222.25,321.75 L222,322.5 L221,323.5 L220.5,323.5 L220,322.75 L220.25,300.25 L219.5,299.5 Z M232.75,324 L234.75,324.5 L237,325.75 L239,327.75 L241.25,332.75 L242.25,339 L242.25,346.75 L241.25,352.25 L240.25,355 L238.25,358.25 L236,360.5 L232.75,362 L231.25,362.25 L229.25,362 L226.5,361 L223.25,358 L221.25,354.25 L220,349 L220,340 L220.75,335 L222,331 L224,327.5 L225.75,325.75 L228.25,324.25 Z "  fill="#63c29d" fill-rule="evenodd"/>
    </g></svg>
